<?xml version="1.0" encoding="UTF-8" standalone="no"?>
<!DOCTYPE svg PUBLIC "-//W3C//DTD SVG 1.1//EN" "http://www.w3.org/Graphics/SVG/1.1/DTD/svg11.dtd">
<!-- Created with Vectornator (http://vectornator.io/) -->
<svg height="162.074782679161pt" stroke-miterlimit="10" style="fill-rule:nonzero;clip-rule:evenodd;stroke-linecap:round;stroke-linejoin:round;" version="1.1" viewBox="0 0 750.176 162.075" width="750.1756429408423pt" xml:space="preserve" xmlns="http://www.w3.org/2000/svg" xmlns:xlink="http://www.w3.org/1999/xlink">
<defs/>
<clipPath id="ArtboardFrame">
<rect height="162.075" width="750.176" x="0" y="0"/>
</clipPath>
<g clip-path="url(#ArtboardFrame)" id="无标题">
<g opacity="1">
<clipPath clip-rule="nonzero" id="ClipPath">
<path d="M1.13687e-13 3.87665e-05L841.89 3.87665e-05L841.89 595.28L1.13687e-13 595.28L1.13687e-13 3.87665e-05Z"/>
</clipPath>
<g clip-path="url(#ClipPath)">
<path d="M139.342 102.174L142.74 103.539L148.223 103.236L147.868 104.131L145 104.257C144.465 104.278 143.938 104.292 143.42 104.286C143.769 104.623 144.156 105.017 144.581 105.467L146.505 107.501L146.166 108.361L142.449 104.278L139.053 102.913L139.342 102.174ZM144.22 97.8596L144.22 97.8596L145.19 98.1445L144.48 100.583L141.403 99.6974C141.091 99.1976 140.868 98.713 140.777 98.2466C140.678 97.7818 140.686 97.346 140.809 96.9239C140.968 96.3615 141.291 95.8891 141.777 95.531C142.263 95.1714 142.868 94.9671 143.593 94.9245C144.317 94.8727 145.099 94.9702 145.911 95.211C146.71 95.4457 147.427 95.784 148.061 96.2213C148.688 96.6572 149.118 97.1525 149.335 97.6843C149.54 98.2192 149.556 98.7785 149.395 99.3545C149.271 99.7812 149.067 100.123 148.765 100.405C148.484 100.682 148.128 100.872 147.737 100.959C147.325 101.052 146.83 101.063 146.242 101.005L146.182 100.232C146.612 100.27 146.984 100.26 147.263 100.196C147.548 100.139 147.779 100.02 148.005 99.8239C148.217 99.6197 148.378 99.3804 148.455 99.0924C148.554 98.7404 148.561 98.4188 148.484 98.1202C148.41 97.8154 148.266 97.5502 148.061 97.3247C147.853 97.0961 147.615 96.8949 147.344 96.7273C146.876 96.4301 146.341 96.1954 145.739 96.0156C145 95.8053 144.352 95.7139 143.801 95.7383C143.247 95.7703 142.804 95.9242 142.467 96.1954C142.135 96.4667 141.896 96.7913 141.784 97.1631C141.696 97.4938 141.696 97.8458 141.784 98.2116C141.876 98.5819 142.002 98.873 142.164 99.0985L143.723 99.545L144.22 97.8596ZM146.787 88.7251L146.787 88.7251C145.753 88.5986 144.919 88.6962 144.285 89.0132C143.634 89.3301 143.282 89.7812 143.212 90.3649C143.142 90.9607 143.381 91.4834 143.938 91.9406C144.486 92.3948 145.32 92.6904 146.422 92.8245C147.112 92.9053 147.737 92.8992 148.272 92.794C148.811 92.6934 149.241 92.4969 149.561 92.2165C149.884 91.9406 150.071 91.6023 150.116 91.2107C150.198 90.6468 149.972 90.1363 149.47 89.6684C148.97 89.196 148.069 88.8912 146.787 88.7251M146.906 87.9175L146.906 87.9175C148.322 88.0851 149.406 88.4874 150.148 89.1122C150.884 89.7385 151.204 90.4777 151.094 91.3219C151.042 91.8705 150.788 92.3506 150.358 92.7437C149.93 93.1369 149.363 93.4127 148.653 93.5606C147.952 93.7145 147.174 93.7434 146.32 93.6337C145.451 93.5316 144.69 93.3152 144.029 92.983C143.374 92.666 142.897 92.2515 142.594 91.7699C142.301 91.2731 142.174 90.7672 142.242 90.2521C142.315 89.6898 142.572 89.2067 143.008 88.8089C143.444 88.4127 144.029 88.1415 144.729 87.9997C145.427 87.8534 146.15 87.8138 146.906 87.9175M143.083 82.8793L143.083 82.8793L151.696 83.5301L151.637 84.321L144.046 83.7526L143.807 86.6983L142.804 86.6236L143.083 82.8793ZM147.153 76.7394L147.153 76.7394C146.112 76.7684 145.295 76.9863 144.712 77.3962C144.128 77.8031 143.852 78.3045 143.868 78.8882C143.887 79.4871 144.212 79.9702 144.825 80.3344C145.437 80.7032 146.309 80.8647 147.411 80.8373C148.11 80.8068 148.723 80.7032 149.229 80.5249C149.755 80.339 150.148 80.089 150.425 79.7568C150.707 79.4368 150.841 79.0771 150.82 78.6779C150.806 78.114 150.513 77.6401 149.947 77.2545C149.377 76.8598 148.455 76.6907 147.153 76.7394M147.153 75.9089L147.153 75.9089C148.575 75.8586 149.707 76.0948 150.538 76.6053C151.358 77.1204 151.784 77.797 151.819 78.6428C151.833 79.196 151.65 79.7035 151.295 80.1622C150.926 80.6194 150.405 80.9775 149.729 81.2305C149.067 81.4849 148.287 81.6267 147.427 81.6511C146.562 81.6815 145.774 81.5901 145.07 81.363C144.381 81.1405 143.839 80.8068 143.473 80.3694C143.107 79.929 142.909 79.4444 142.897 78.9263C142.882 78.3578 143.064 77.8473 143.438 77.3871C143.807 76.9314 144.338 76.5718 145.007 76.3143C145.675 76.0735 146.387 75.9378 147.153 75.9089M142.228 70.1667L142.228 70.1667L150.806 69.1305L150.911 69.9412L144.556 73.8897L151.285 73.0744L151.376 73.8333L142.804 74.8696L142.702 74.0527L149.064 70.1164L142.322 70.9226L142.228 70.1667ZM140.862 64.2082L140.862 64.2082L149.279 62.2667L149.462 63.0424L145.989 63.8394L146.685 66.872L150.151 66.0719L150.334 66.8415L141.917 68.7876L141.734 68.0104L145.704 67.0975L145 64.0756L141.045 64.9808L140.862 64.2082ZM143.17 61.3828L143.17 61.3828L143.156 62.2362C142.213 62.3886 141.441 62.3398 140.833 62.0975C140.222 61.8446 139.82 61.43 139.61 60.8464C139.398 60.2292 139.406 59.6684 139.63 59.1624C139.855 58.6565 140.271 58.1841 140.876 57.7482C141.489 57.3109 142.174 56.9527 142.959 56.683C143.807 56.3858 144.581 56.238 145.295 56.2456C146.013 56.2563 146.597 56.4072 147.072 56.7104C147.548 57.0122 147.868 57.4114 148.04 57.9082C148.237 58.4873 148.205 59.0344 147.92 59.5571C147.645 60.0859 147.153 60.5645 146.457 60.9805L145.943 60.3282C146.495 59.9915 146.851 59.6516 147.04 59.3057C147.231 58.9613 147.245 58.6001 147.118 58.2237C146.963 57.7894 146.685 57.4785 146.288 57.285C145.89 57.1021 145.401 57.0335 144.866 57.0914C144.314 57.1554 143.769 57.2712 143.231 57.4541C142.545 57.7025 141.96 57.9875 141.495 58.306C141.03 58.623 140.71 58.9735 140.552 59.3575C140.405 59.7431 140.39 60.1118 140.51 60.4578C140.658 60.8784 140.96 61.1664 141.403 61.3386C141.868 61.5078 142.438 61.5261 143.17 61.3828M136.605 53.1475L136.605 53.1475L144.476 49.5937L146.266 53.5452L145.338 53.9582L143.881 50.7366L141.464 51.8278L142.83 54.8451L141.896 55.2658L140.538 52.2423L137.853 53.4553L139.384 56.8171L138.448 57.2331L136.605 53.1475ZM134.844 49.8909L134.844 49.8909L141.429 46.046L140.425 44.3361L141.306 43.8256L143.705 47.9417L142.825 48.4538L141.826 46.7378L135.242 50.5827L134.844 49.8909ZM129.387 40.2977L129.387 40.2977L130.193 41.3035C130.433 41.6098 130.672 41.8186 130.896 41.9314C131.121 42.0396 131.347 42.0868 131.586 42.0731C131.911 42.0533 132.283 41.939 132.72 41.7302C133.142 41.5245 133.605 41.2227 134.113 40.8128C134.825 40.2505 135.295 39.7354 135.545 39.2736C135.801 38.8058 135.908 38.4126 135.844 38.0774C135.801 37.8366 135.632 37.5303 135.338 37.1615L134.556 36.174L129.387 40.2977ZM128.103 40.3069L128.103 40.3069L134.844 34.9243L136.14 36.5428C136.438 36.907 136.626 37.2133 136.71 37.4525C136.839 37.7924 136.857 38.152 136.772 38.5254C136.678 39.0146 136.443 39.5068 136.07 40.0051C135.704 40.5035 135.218 40.9911 134.626 41.4757C134.11 41.8826 133.613 42.1996 133.156 42.4312C132.696 42.6674 132.28 42.8259 131.911 42.8991C131.544 42.9722 131.228 42.9951 130.963 42.9585C130.686 42.9219 130.428 42.8259 130.175 42.6674C129.919 42.5105 129.687 42.291 129.454 42.0045L128.103 40.3069ZM123.887 35.8158L123.887 35.8158L130.154 29.8847L130.724 30.4775L127.955 37.4297L132.889 32.771L133.409 33.3257L127.132 39.2569L126.576 38.6656L129.338 31.7165L124.401 36.3706L123.887 35.8158ZM122.74 30.1042L122.74 30.1042L124.282 31.4483L125.372 29.2294C125.71 28.5619 125.995 28.0088 126.224 27.5882C125.801 27.9646 125.358 28.2983 124.887 28.6229L122.74 30.1042ZM119.095 31.6449L119.095 31.6449L126.508 26.6494L127.159 27.2163L123.349 35.3389L122.67 34.746L123.852 32.3108L121.949 30.6513L119.732 32.1965L119.095 31.6449ZM111.825 26.7713L111.825 26.7713L116.527 19.5266L120.164 21.8887L119.619 22.7405L116.646 20.8112L115.204 23.0362L117.987 24.8481L117.435 25.6893L114.654 23.8896L113.057 26.3583L116.146 28.3593L115.591 29.2081L111.825 26.7713ZM111.508 23.2145L111.508 23.2145L112.086 23.8317C111.516 24.5952 110.931 25.0904 110.312 25.3388C109.707 25.5811 109.13 25.5674 108.575 25.2855C107.993 24.996 107.61 24.583 107.412 24.0648C107.216 23.5406 107.194 22.9234 107.325 22.1858C107.465 21.4437 107.715 20.7061 108.081 19.9731C108.49 19.1715 108.96 18.5238 109.468 18.0316C109.974 17.5485 110.516 17.2437 111.068 17.1371C111.614 17.0212 112.135 17.0883 112.6 17.323C113.134 17.5958 113.49 18.0194 113.662 18.5985C113.816 19.1715 113.799 19.8496 113.584 20.6375L112.769 20.5217C112.933 19.8969 112.959 19.4001 112.853 19.0191C112.734 18.6442 112.501 18.3669 112.142 18.1886C111.748 17.9844 111.318 17.9493 110.907 18.0971C110.484 18.2389 110.087 18.5177 109.735 18.946C109.38 19.362 109.081 19.8283 108.828 20.3404C108.49 20.9926 108.272 21.6022 108.165 22.1553C108.046 22.707 108.07 23.1749 108.229 23.5604C108.384 23.9444 108.624 24.2218 108.954 24.3818C109.344 24.583 109.767 24.583 110.199 24.397C110.65 24.2035 111.089 23.8119 111.508 23.2145M100.586 21.7104L100.586 21.7104L103.802 13.7006L104.565 14.0069L104.957 21.4696L107.487 15.1819L108.2 15.4668L104.978 23.4812L104.215 23.1733L103.816 15.7122L101.291 21.9953L100.586 21.7104ZM95.1156 20.2352L95.1156 20.2352L97.4335 11.9161L101.621 13.0819L101.339 14.0557L97.9257 13.1047L97.2155 15.6543L100.417 16.5488L100.135 17.5257L96.9473 16.6387L96.1595 19.4656L99.7026 20.4592L99.4329 21.4376L95.1156 20.2352ZM92.8525 19.7841L92.8525 19.7841L94.4252 11.2974L95.2024 11.4452L93.6328 19.9319L92.8525 19.7841ZM91.2509 16.3781L91.2509 16.3781L92.0007 16.7561C91.7294 17.6735 91.3454 18.3394 90.8577 18.7783C90.3685 19.2111 89.8123 19.4016 89.186 19.3239C88.5444 19.2492 88.0461 18.9932 87.694 18.5741C87.3344 18.1459 87.0921 17.5683 86.9686 16.8307C86.8422 16.0901 86.8284 15.3129 86.9199 14.4961C87.0387 13.6061 87.2506 12.838 87.5599 12.2071C87.883 11.5625 88.2777 11.1008 88.7638 10.8097C89.2423 10.5186 89.7483 10.4074 90.2695 10.4683C90.8669 10.5415 91.3454 10.8188 91.6913 11.3019C92.0494 11.7911 92.2582 12.4373 92.3237 13.2465L91.5145 13.4156C91.4597 12.7817 91.3103 12.2986 91.0848 11.9846C90.8531 11.6707 90.5407 11.4878 90.1384 11.436C89.6782 11.3812 89.2774 11.4894 88.9391 11.7698C88.5871 12.0487 88.3204 12.4494 88.1238 12.96C87.947 13.4827 87.8129 14.0176 87.7504 14.5875C87.6544 15.316 87.6544 15.9591 87.7352 16.5229C87.8129 17.0837 88.0034 17.5226 88.2777 17.8259C88.5596 18.1322 88.8827 18.309 89.2423 18.3486C89.6782 18.3958 90.079 18.2617 90.4234 17.9341C90.783 17.6079 91.0467 17.0883 91.2509 16.3781M80.7678 15.8204L80.7678 15.8204L81.5252 15.7488C81.5435 16.18 81.6212 16.5397 81.7477 16.8246C81.8635 17.1035 82.057 17.3352 82.3237 17.5226C82.5843 17.6933 82.8937 17.7908 83.235 17.8C83.5413 17.8167 83.8095 17.7558 84.0442 17.6399C84.285 17.5135 84.4557 17.3397 84.5837 17.1157C84.7026 16.8947 84.765 16.6494 84.7727 16.3858C84.7803 16.1099 84.7376 15.8768 84.6325 15.6726C84.5334 15.4668 84.3536 15.2931 84.1082 15.1453C83.9497 15.0508 83.5977 14.8954 83.0491 14.6881C82.5081 14.4778 82.1195 14.2904 81.9016 14.1121C81.6349 13.8865 81.4231 13.6107 81.2966 13.2891C81.1564 12.9645 81.1061 12.6003 81.1061 12.2071C81.1305 11.7698 81.2341 11.3629 81.4124 10.991C81.5983 10.6238 81.8635 10.3388 82.2003 10.1483C82.5355 9.96849 82.9074 9.8801 83.3127 9.89077C83.7455 9.90144 84.1463 10.0249 84.4785 10.2382C84.8123 10.4516 85.0683 10.7655 85.2314 11.1724C85.399 11.5808 85.4798 12.038 85.4798 12.5455L84.7163 12.6003C84.6858 12.0593 84.5624 11.6433 84.3444 11.3583C84.1189 11.0733 83.7745 10.9179 83.3021 10.9042C82.8236 10.8905 82.4685 11.0048 82.2429 11.2471C82.0174 11.4985 81.8955 11.7972 81.8802 12.1553C81.8802 12.4677 81.9442 12.7283 82.089 12.9295C82.2323 13.1383 82.6346 13.3531 83.2716 13.5848C83.9086 13.8134 84.3505 14.0115 84.5898 14.1761C84.9281 14.4153 85.175 14.7171 85.3289 15.0858C85.4798 15.4348 85.5575 15.8417 85.5331 16.3096C85.5331 16.7728 85.4203 17.1919 85.2314 17.5958C85.0378 17.9996 84.7589 18.309 84.4008 18.5177C84.0549 18.7372 83.6648 18.8378 83.2396 18.824C82.694 18.8058 82.2429 18.6762 81.8802 18.437C81.5252 18.1962 81.2539 17.8426 81.0573 17.3778C80.8607 16.913 80.7678 16.3979 80.7678 15.8204M71.5983 19.2919L71.5983 19.2919L70.5651 10.7198L74.5974 10.2291L74.7239 11.241L71.4825 11.6265L71.7964 14.2964L74.6065 13.9597L74.7239 14.9639L71.9229 15.3022L72.3938 19.1974L71.5983 19.2919ZM64.7056 16.4315L64.7056 16.4315C64.9342 17.4418 65.3106 18.1962 65.8241 18.6808C66.327 19.1837 66.8848 19.362 67.4502 19.2325C68.0369 19.0923 68.4392 18.696 68.6967 18.0194C68.9238 17.3443 68.9238 16.462 68.6784 15.3845C68.523 14.7033 68.2975 14.1212 68.0247 13.6473C67.7428 13.1764 67.4151 12.832 67.0387 12.6277C66.673 12.4159 66.2889 12.355 65.9018 12.4494C65.3502 12.5714 64.9342 12.9508 64.6675 13.5848C64.4038 14.2126 64.4069 15.1636 64.7056 16.4315M63.907 16.5869L63.907 16.5869C63.5763 15.1971 63.584 14.042 63.9253 13.1383C64.2651 12.2285 64.8503 11.6783 65.6733 11.4878C66.2158 11.3629 66.7461 11.433 67.2719 11.7058C67.7778 11.9725 68.2319 12.4159 68.619 13.0209C68.9985 13.632 69.2911 14.3589 69.48 15.1971C69.6781 16.049 69.7269 16.846 69.6492 17.5683C69.5715 18.2968 69.3475 18.885 68.9817 19.3346C68.619 19.778 68.1862 20.066 67.6787 20.1803C67.1225 20.3053 66.5922 20.2352 66.0649 19.9457C65.5392 19.6683 65.0896 19.2233 64.7239 18.6092C64.3429 18.0026 64.0686 17.3291 63.907 16.5869M57.4608 23.184L57.4608 23.184L56.0893 19.7887L52.0951 16.0337L52.9774 15.6741L55.053 17.6582C55.4401 18.027 55.8134 18.3928 56.1655 18.7783C56.1655 18.2922 56.1868 17.739 56.2158 17.1157L56.3483 14.3239L57.2109 13.9795L56.8345 19.49L58.1923 22.8884L57.4608 23.184ZM52.5629 25.4166L52.5629 25.4166L49.163 18.5985L47.3831 19.4778L46.932 18.5741L51.1898 16.4482L51.6516 17.3565L49.8808 18.2389L53.2807 25.0645L52.5629 25.4166ZM49.2057 27.2331L49.2057 27.2331L44.9265 19.7369L45.6092 19.3346L49.9021 26.8353L49.2057 27.2331ZM42.5766 28.1794L42.5766 28.1794L43.1389 27.6964C43.4132 28.0347 43.6677 28.2937 43.9314 28.4537C44.195 28.6138 44.48 28.6961 44.8137 28.6961C45.1231 28.6869 45.434 28.5879 45.722 28.405C45.975 28.2373 46.1594 28.0408 46.2858 27.8061C46.4123 27.5699 46.4687 27.323 46.4337 27.0715C46.4017 26.8125 46.3133 26.5808 46.1792 26.3583C46.0252 26.1313 45.8485 25.9652 45.6519 25.8494C45.4477 25.7457 45.2084 25.7015 44.9265 25.7259C44.736 25.7396 44.3642 25.8097 43.7942 25.9469C43.2243 26.0901 42.8021 26.1557 42.5202 26.1313C42.1682 26.1038 41.8482 25.9911 41.5449 25.8082C41.2599 25.6116 40.9993 25.3419 40.789 25.0219C40.5559 24.6485 40.4019 24.2599 40.3379 23.8484C40.2831 23.4385 40.3318 23.056 40.501 22.7116C40.6686 22.3687 40.9216 22.0868 41.2599 21.8582C41.6363 21.622 42.028 21.4955 42.4212 21.4818C42.8189 21.4696 43.2029 21.5808 43.5763 21.8201C43.9481 22.0609 44.2803 22.387 44.5684 22.8045L43.9771 23.2907C43.6464 22.8548 43.2944 22.5881 42.9561 22.4784C42.5979 22.3748 42.2307 22.4464 41.8482 22.6979C41.4367 22.9585 41.2112 23.2602 41.1731 23.5848C41.1197 23.9185 41.1974 24.2355 41.394 24.5418C41.5586 24.8024 41.7598 24.9716 42.0021 25.0554C42.2429 25.1346 42.6894 25.0904 43.3462 24.9213C44.0045 24.746 44.4693 24.6546 44.7589 24.6546C45.1795 24.6546 45.5528 24.7613 45.8911 24.9716C46.2218 25.1743 46.5129 25.479 46.7628 25.857C47.0067 26.2517 47.1682 26.6586 47.2383 27.099C47.3023 27.5379 47.2566 27.9509 47.095 28.3212C46.9259 28.6961 46.6577 29.0039 46.2996 29.234C45.8454 29.5327 45.405 29.6836 44.9722 29.6942C44.5409 29.7003 44.1112 29.5693 43.6875 29.3011C43.2669 29.0252 42.892 28.6564 42.5766 28.1794M37.1301 29.9548L37.1301 29.9548L38.4666 28.8911C38.7546 28.658 38.9375 28.4461 39.0289 28.2328C39.1203 28.0194 39.131 27.7908 39.0761 27.5379C38.9938 27.2849 38.8887 27.0472 38.7058 26.8308C38.4528 26.5123 38.1633 26.3157 37.8463 26.2334C37.5126 26.1587 37.1849 26.2593 36.8329 26.5412L35.3486 27.7238L37.1301 29.9548ZM39.5196 34.2279L39.5196 34.2279L34.131 27.4754L36.2081 25.8174C36.6363 25.479 36.999 25.2901 37.3114 25.2337C37.636 25.1788 37.9743 25.2535 38.3477 25.4577C38.7241 25.6589 39.0578 25.9438 39.3535 26.3157C39.7406 26.7957 39.9509 27.2849 39.9981 27.7878C40.0423 28.2937 39.8731 28.7601 39.4937 29.2081C39.7467 29.1898 39.9661 29.2066 40.1414 29.2492C40.5147 29.3422 40.9201 29.5007 41.3727 29.7354L43.6525 30.9179L42.8722 31.5443L41.1304 30.6345C40.6275 30.38 40.2328 30.1773 39.9448 30.0645C39.6552 29.935 39.4236 29.874 39.2651 29.8603C39.1066 29.8481 38.9664 29.8725 38.8399 29.9121C38.7546 29.9411 38.6281 30.0249 38.4666 30.1545L37.7488 30.729L40.1414 33.725L39.5196 34.2279ZM35.4324 38.1871L35.4324 38.1871L29.451 31.9557L32.5903 28.9597L33.2867 29.6881L30.7357 32.1417L32.5659 34.0496L34.9615 31.7561L35.6656 32.4861L33.27 34.7887L35.3135 36.91L37.9667 34.3574L38.6708 35.0905L35.4324 38.1871ZM32.8356 41.2288L32.8356 41.2288L24.7923 37.3123L25.3486 36.6677L31.1151 39.6059C31.5799 39.8436 32.0051 40.0661 32.3891 40.2962C32.0904 39.9137 31.8085 39.5251 31.5342 39.1243L27.8646 33.7829L28.3964 33.1718L33.3705 40.6071L32.8356 41.2288ZM30.4126 44.4108L30.4126 44.4108L23.4101 39.3514L23.878 38.7098L30.8804 43.7692L30.4126 44.4108ZM26.9243 49.6501L26.9243 49.6501L19.6552 44.9945L20.0941 44.3026L27.4988 45.3023L21.7948 41.6479L22.2032 41.0079L29.4693 45.662L29.0365 46.3523L21.6256 45.3495L27.3404 49.0024L26.9243 49.6501ZM18.1846 47.7132L18.1846 47.7132L18.5427 47.0015L22.9911 49.2417C23.7683 49.6455 24.3519 50.0112 24.7436 50.3617C25.1413 50.7138 25.3973 51.1222 25.5315 51.5778C25.6579 52.0487 25.5848 52.5333 25.3272 53.0454C25.0712 53.5498 24.736 53.9018 24.3245 54.0923C23.9207 54.2828 23.4452 54.3331 22.8996 54.2264C22.3647 54.135 21.682 53.8759 20.8652 53.4599L16.4138 51.2136L16.7765 50.505L21.2248 52.7497C21.8938 53.0881 22.4104 53.2923 22.7731 53.37C23.1419 53.4401 23.4559 53.4157 23.7302 53.2923C24.0045 53.1734 24.2254 52.954 24.3748 52.6522C24.6415 52.131 24.6598 51.683 24.4266 51.2852C24.198 50.8906 23.5961 50.4471 22.6329 49.9533L18.1846 47.7132ZM20.7006 64.8924L20.7006 64.8924L12.3815 62.5867L12.6009 61.8034L19.9676 60.5705L13.4345 58.7586L13.6448 58.0302L21.9639 60.3282L21.743 61.1161L14.3702 62.349L20.9002 64.1579L20.7006 64.8924ZM14.8106 69.2143L14.8106 69.2143L15.1154 67.5364C15.1901 67.1783 15.187 66.8933 15.1154 66.6739C15.0453 66.4514 14.902 66.267 14.6948 66.1222C14.4753 65.9744 14.2361 65.8723 13.9618 65.8266C13.5534 65.7504 13.209 65.79 12.9133 65.9393C12.6101 66.0963 12.4348 66.3904 12.3479 66.8278L11.9959 68.6961L14.8106 69.2143ZM19.4129 70.883L19.4129 70.883L10.9185 69.3088L11.4001 66.6815C11.5022 66.1649 11.6606 65.7763 11.8542 65.5203C12.0614 65.2825 12.3678 65.1149 12.7838 65.0204C13.1983 64.932 13.6448 64.932 14.1066 65.0113C14.7116 65.1271 15.1901 65.3526 15.5665 65.7031C15.9185 66.0536 16.1014 66.5169 16.109 67.1067C16.2903 66.9192 16.461 66.7973 16.6226 66.715C16.9594 66.5413 17.3754 66.3904 17.8676 66.2777L20.373 65.6833L20.1901 66.6525L18.2791 67.1097C17.7228 67.2393 17.2977 67.3597 17.0051 67.4541C16.7033 67.5578 16.4885 67.6522 16.3544 67.7467C16.2279 67.8504 16.1471 67.9494 16.0663 68.0668C16.0237 68.1445 15.9856 68.2862 15.9505 68.4904L15.7844 69.4017L19.55 70.0951L19.4129 70.883ZM18.6951 76.5276L18.6951 76.5276L10.1261 75.4974L10.6442 71.1817L11.65 71.3036L11.2248 74.8223L13.8566 75.1363L14.2513 71.8446L15.2647 71.965L14.8548 75.2597L17.7838 75.6148L18.2334 71.9528L19.2224 72.0762L18.6951 76.5276ZM18.5366 82.6645L18.5366 82.6645L9.90204 82.3871L9.92947 81.5947L13.4909 81.7074L13.5884 78.5986L10.0285 78.4843L10.056 77.6904L18.6921 77.9692L18.6601 78.7602L14.5957 78.6245L14.4967 81.7364L18.558 81.8705L18.5366 82.6645ZM18.8749 86.3859L18.8749 86.3859L11.2736 86.9589L11.4244 88.9354L10.408 89.0071L10.056 84.2661L11.0694 84.1853L11.2172 86.1634L18.8185 85.5843L18.8749 86.3859ZM10.789 91.677L10.789 91.677L10.6442 90.9013L15.5421 89.9854C16.3894 89.8254 17.0858 89.7705 17.6146 89.8102C18.1389 89.8513 18.5854 90.0144 18.9725 90.3085C19.3489 90.6011 19.5912 91.0278 19.7009 91.6023C19.803 92.1524 19.7497 92.634 19.5394 93.0363C19.3245 93.4341 18.9862 93.7587 18.4939 94.004C17.9941 94.2463 17.2977 94.4475 16.4001 94.6304L11.5022 95.531L11.3513 94.7492L16.2492 93.841C16.9944 93.7008 17.5232 93.5606 17.8615 93.3975C18.1907 93.2375 18.4315 93.0257 18.5778 92.7574C18.7271 92.4908 18.7606 92.1875 18.7042 91.8568C18.6006 91.2777 18.3324 90.9059 17.9133 90.7382C17.4973 90.5523 16.7521 90.5691 15.6853 90.7672L10.789 91.677ZM17.5232 100.953L17.5232 100.953C18.5229 100.668 19.2468 100.26 19.7177 99.7264C20.1901 99.19 20.3455 98.6352 20.1794 98.0653C20.0209 97.4938 19.6018 97.0961 18.9161 96.8949C18.2334 96.6846 17.354 96.7349 16.2782 97.0366C15.6091 97.2271 15.0392 97.4694 14.5881 97.7818C14.1309 98.076 13.7926 98.4188 13.6067 98.7953C13.4208 99.19 13.3781 99.5709 13.4909 99.9504C13.6448 100.491 14.0349 100.878 14.6872 101.127C15.3272 101.365 16.2782 101.31 17.5232 100.953M17.7228 101.752L17.7228 101.752C16.3406 102.136 15.1901 102.189 14.265 101.892C13.3431 101.596 12.7655 101.034 12.5369 100.222C12.3815 99.6898 12.4348 99.1549 12.6741 98.62C12.9194 98.0912 13.3354 97.6218 13.9313 97.2088C14.5211 96.7974 15.2388 96.4774 16.0526 96.2411C16.8969 96.0049 17.6878 95.9105 18.4238 95.9607C19.1477 96.0095 19.7542 96.1985 20.2145 96.5368C20.6762 96.8812 20.9856 97.2972 21.1258 97.8047C21.2736 98.3457 21.2248 98.8836 20.9719 99.4216C20.7174 99.9504 20.2922 100.432 19.7009 100.837C19.1096 101.238 18.4589 101.547 17.7228 101.752M21.2675 106.945L21.2675 106.945L20.9079 106.287C21.2949 106.096 21.5936 105.888 21.8085 105.661C22.0203 105.44 22.1575 105.168 22.2093 104.851C22.2733 104.539 22.2352 104.211 22.1118 103.899C21.999 103.617 21.8374 103.384 21.6393 103.222C21.4351 103.058 21.1959 102.963 20.9429 102.942C20.6899 102.919 20.4324 102.956 20.1931 103.053C19.9432 103.157 19.7405 103.292 19.6018 103.469C19.4479 103.649 19.3595 103.87 19.3245 104.159C19.3032 104.345 19.3032 104.729 19.3245 105.313C19.3534 105.897 19.3245 106.319 19.2574 106.587C19.1584 106.932 18.9862 107.233 18.7469 107.48C18.5016 107.733 18.1907 107.93 17.8326 108.079C17.4104 108.234 17.0096 108.303 16.5906 108.283C16.1745 108.268 15.8118 108.142 15.507 107.902C15.2038 107.669 14.9798 107.36 14.8274 106.988C14.6582 106.569 14.6171 106.171 14.6719 105.776C14.739 105.383 14.9295 105.031 15.2388 104.714C15.5421 104.391 15.9216 104.141 16.3894 103.932L16.7521 104.614C16.2629 104.851 15.9322 105.129 15.7631 105.453C15.5741 105.776 15.5741 106.153 15.757 106.584C15.9398 107.031 16.1791 107.316 16.4961 107.424C16.8161 107.53 17.1361 107.523 17.4668 107.393C17.7579 107.284 17.9728 107.107 18.1038 106.889C18.2334 106.674 18.276 106.227 18.2334 105.552C18.1907 104.87 18.1907 104.391 18.244 104.111C18.3324 103.701 18.5046 103.346 18.7789 103.058C19.0456 102.782 19.3946 102.553 19.8167 102.378C20.2465 102.209 20.6762 102.136 21.1258 102.156C21.5799 102.181 21.9639 102.3 22.3007 102.54C22.6329 102.782 22.8859 103.09 23.0337 103.489C23.241 103.996 23.3004 104.461 23.2303 104.883C23.1526 105.313 22.9423 105.706 22.5903 106.066C22.2352 106.429 21.8085 106.72 21.2675 106.945" fill="#ed6c00" fill-rule="nonzero" opacity="1" stroke="none"/>
<path d="M119.496 42.1779C109.158 31.8564 95.435 26.1584 80.8312 26.1584C66.2289 26.1584 52.4998 31.8564 42.1752 42.1779C31.8475 52.5026 26.1572 66.2316 26.1572 80.837C26.1572 95.4393 31.8475 109.17 42.1752 119.493C52.4998 129.818 66.2289 135.503 80.8312 135.503C95.435 135.503 109.158 129.818 119.496 119.493C129.819 109.17 135.507 95.4393 135.507 80.837C135.507 66.2316 129.819 52.5026 119.496 42.1779M118.679 118.684L118.679 118.684C108.574 128.797 95.1317 134.359 80.8312 134.359C66.5322 134.359 53.0896 128.797 42.9814 118.684C32.864 108.577 27.3047 95.1329 27.3047 80.837C27.3047 66.5334 32.864 53.0969 42.9814 42.9856C53.0896 32.8728 66.5322 27.3059 80.8312 27.3059C95.1287 27.3059 108.574 32.8728 118.679 42.9856C128.786 53.0969 134.359 66.5334 134.359 80.837C134.359 95.1329 128.786 108.577 118.679 118.684" fill="#ed6c00" fill-rule="nonzero" opacity="1" stroke="none"/>
<path d="M137.987 23.6758C122.722 8.40603 102.416 3.87665e-05 80.8322 3.87665e-05C59.2412 3.87665e-05 38.9455 8.41213 23.6803 23.6758C8.40904 38.9471 0 59.2458 0 80.8368C0 102.426 8.40904 122.724 23.6803 137.99C38.9455 153.26 59.2412 161.665 80.8322 161.665C102.416 161.665 122.722 153.26 137.987 137.99C153.255 122.724 161.664 102.426 161.664 80.8368C161.664 59.2458 153.255 38.9471 137.987 23.6758M136.549 136.552L136.549 136.552C121.664 151.436 101.881 159.632 80.8322 159.632C59.7837 159.632 39.997 151.436 25.1159 136.552C10.2317 121.675 2.04054 101.885 2.04054 80.8368C2.04054 59.7868 10.2317 39.9956 25.1159 25.1205C39.997 10.2347 59.7837 2.03448 80.8322 2.03448C101.881 2.03448 121.664 10.2347 136.549 25.1205C151.425 40.0047 159.616 59.7914 159.616 80.8368C159.616 101.879 151.425 121.675 136.549 136.552" fill="#ed6c00" fill-rule="nonzero" opacity="1" stroke="none"/>
<path d="M30.528 130.799L30.1836 130.598L30.3177 130.152C30.3725 129.972 30.4152 129.941 30.3588 129.74C30.246 129.402 30.0114 129.311 29.8605 129.064C30.0708 128.649 30.496 128.453 30.8937 128.184C31.1193 128.038 31.1406 128.03 31.3829 127.84C31.7182 127.579 31.7349 127.663 31.9635 127.424C32.0382 126.918 31.7029 126.836 31.9635 126.214C32.2515 126.094 32.2515 126.15 32.5411 126.116L34.2403 125.94C34.0681 126.664 32.9922 127.875 32.474 128.419C32.1403 128.791 31.0629 130.591 30.528 130.799M29.4262 125.173L29.4262 125.173L29.9794 124.3L31.3722 124.172C31.7349 124.152 32.4771 124.033 32.8017 124.329C32.6112 124.859 32.5411 124.603 32.0382 124.813C31.5978 124.996 31.6755 125.05 31.1543 125.095C30.7047 125.137 29.9016 125.792 29.4262 125.173M25.6788 127.636L25.6788 127.636C26.0949 127.622 26.6359 127.663 27.2881 127.663C27.5898 127.663 27.8184 127.677 28.1354 127.682C28.5088 127.682 28.649 127.677 28.9949 127.986C28.812 128.311 28.7892 128.396 28.4798 128.459L28.3396 128.469C27.7209 128.515 25.8724 128.038 25.6788 127.636M27.8184 125.412L27.8184 125.412C27.4664 126.031 27.2881 125.725 26.7593 125.77C26.3829 125.81 26.0278 125.99 25.5843 125.918C25.4365 125.897 25.1653 125.851 25.0098 125.822C24.7721 125.755 24.6593 125.65 24.4155 125.65C23.8989 125.65 23.4691 126.243 23.8181 127.073C24.2936 128.23 23.8349 128.107 24.9062 128.544C25.6026 128.84 27.0092 129.205 27.3689 129.807C27.3049 130.031 26.8964 130.486 26.4667 130.367C26.2914 130.31 26.4012 130.324 26.229 130.251L25.9882 130.158C25.6301 130.771 26.1223 130.464 25.6026 131.447L26.4317 132.267C27.8824 131.685 27.3689 129.916 28.8669 130.415C29.382 130.583 29.4368 130.457 29.8803 130.516C30.4304 131.574 29.6273 131.334 29.3241 132.378C29.1 133.168 30.019 134.039 30.019 134.039C30.7748 134.114 31.2915 133.03 31.7806 132.378L33.4234 130.284C33.684 129.951 34.35 129.311 35.022 128.415C35.3131 128.038 35.5493 127.938 35.9333 127.529C36.3159 127.13 36.4606 126.897 36.8096 126.411C37.0519 126.068 37.3613 125.841 37.6432 125.454C38.1491 124.765 38.0577 124.672 37.8611 124.35C37.2988 123.427 37.2988 122.864 36.2854 122.759C35.8617 122.723 35.6865 122.899 35.3207 122.886L33.1979 122.819C32.7422 122.826 32.4984 122.913 32.1159 122.681C32.4771 122.305 32.5411 122.262 33.0165 122.189C33.4844 122.122 33.5362 121.988 33.9629 121.948C35.6514 121.776 34.2022 121.752 36.0065 121.959C36.4469 122.016 36.6785 121.872 36.9391 121.421C37.4116 120.591 36.7426 121.084 37.0519 119.817C37.1433 119.429 37.1159 119.55 37.3293 119.362C37.791 118.952 37.8611 118.972 38.1994 118.338C37.6706 116.938 37.1433 117.276 37.1433 117.276C37.1647 117.305 37.0976 117.311 37.0915 117.314L34.7432 118.972C33.745 119.602 31.5597 118.965 30.5143 118.543C29.9794 118.318 30.2674 118.588 29.7752 118.346L27.5167 117.384C27.0595 117.269 27.1753 117.243 26.7989 117.358C26.5063 117.429 26.4256 117.515 26.229 117.846C26.4393 118.37 26.4256 118.518 27.0595 118.927C28.0226 119.55 30.6407 120.268 31.0842 120.801C31.0629 120.999 31.197 120.83 30.9425 121.095C30.7322 121.337 29.2677 121.862 29.0071 121.813C28.396 121.709 28.5865 121.305 27.7971 121.696C27.2911 121.948 27.1784 122.262 26.6999 122.343C26.4012 122.386 26.4256 122.354 26.1436 122.435C25.7779 122.55 25.9547 122.537 25.5386 122.555C24.1976 122.617 24.8666 122.826 23.8151 122.79C23.3503 122.771 22.9906 122.927 22.6462 122.913C22.2805 122.899 22.189 122.79 21.9665 122.752C21.4012 122.668 20.179 123.747 21.3158 124.56C22.3506 125.297 22.093 123.744 26.0309 123.87C26.4393 123.899 26.9361 123.963 27.1647 124.35C27.2774 124.51 27.2881 124.672 27.3887 124.87C27.5472 125.144 27.6569 125.193 27.8184 125.412" fill="#ed6c00" fill-rule="evenodd" opacity="1" stroke="none"/>
<path d="M131.678 122.617C131.882 121.686 131.503 121.98 132.403 121.563C132.6 122.133 132.321 122.287 132.1 122.751C131.853 123.292 132.108 123.519 131.491 123.85L131.474 123.181C131.538 122.808 131.59 123.02 131.678 122.617M128.645 120.886L128.645 120.886C128.455 120.542 128.568 120.136 128.859 119.81C129.046 120.254 129.043 120.59 128.645 120.886M128.997 129.598L128.997 129.598C128.997 129.569 128.997 129.536 129.008 129.515C129.011 129.501 129.011 129.458 129.022 129.438L129.313 127.558C129.471 126.189 129.598 126.756 129.772 125.665C130.031 124.085 130.334 124.377 130.369 123.687C130.428 122.956 130.651 123.385 130.886 122.738C131.111 122.108 130.713 122.477 131.439 121.88C131.692 123.343 130.686 123.609 131.491 124.413C131.27 124.693 130.876 125.848 130.762 126.214C130.573 126.837 130.468 127.277 130.046 127.937C129.398 128.966 129.356 128.62 129.613 129.074C130.425 129.057 130.89 128.02 131.27 127.512C131.27 127.412 132.03 126.067 132.15 125.818C132.388 125.252 132.516 124.525 133.106 124.018C133.455 125.222 132.374 126.586 132.495 127.031C132.67 127.665 133.149 127.594 133.127 127.966C133.188 128.378 133.226 128.05 132.915 128.459L131.818 129.841C131.474 130.367 130.175 131.287 130.081 131.584C131.012 132.716 134.089 128.474 134.936 128.474C135.13 128.523 134.971 128.367 135.274 128.701C135.358 128.797 135.428 128.902 135.468 129.007C135.724 129.577 135.578 130.307 135.13 130.787C135.52 131.127 135.119 130.697 135.433 130.972C135.774 131.267 135.5 131.334 135.979 131.893C137.202 131.886 138.412 131.544 137.992 130.063C137.9 129.722 137.906 129.55 137.78 129.23C137.484 128.552 136.667 127.703 136.626 126.907C138.412 125.327 140.348 124.813 139.084 123.582C138.786 123.3 138.758 123.442 138.592 123.076C138.539 122.963 138.624 122.434 138.082 122.668C137.576 122.882 137.118 123.617 136.689 123.996C135.907 124.673 135.274 125.45 135.162 125.534C134.651 125.405 134.506 125.275 134.49 124.659L134.299 122.153C134.304 121.753 134.089 121.217 133.656 121.06C133.092 120.866 133.008 121.386 132.501 121.415C132.256 120.971 132.571 120.722 132.789 120.359C132.958 120.077 133.269 119.697 133.469 119.362C133.642 119.079 133.536 119.106 133.656 118.8C133.769 118.561 133.836 118.555 133.88 118.318C133.936 118.078 133.81 117.002 132.998 117.537C132.888 117.607 132.698 117.768 132.594 117.85C132.326 118.061 132.036 118.241 131.804 118.491C131.544 118.779 130.855 121.639 130.06 122.41C129.737 121.925 129.974 122.402 129.961 122.041L130.192 121.042C130.707 119.022 130.418 119.711 130.587 118.331C130.672 117.697 131.137 117.579 130.727 116.982C130.116 116.776 129.855 117.087 129.356 117.136C128.958 116.375 130.383 115.798 128.898 115.461L128.251 115.466C127.963 114.883 128.089 114.736 127.371 114.612C126.248 115.228 127.132 116.214 127.294 117.044C127.391 117.515 127.245 117.268 127.216 117.678C127.167 118.219 127.371 117.529 127.103 118.542C127.079 118.62 127.068 118.733 127.033 118.818C126.948 119.064 126.864 119.161 126.619 119.318C126.299 119.12 126.428 118.952 125.907 118.896C124.886 118.8 124.866 119.921 124.944 120.584C124.633 120.802 124.493 120.767 124.205 120.866L124.054 121.348C123.831 122.2 124.872 123.434 125.38 124.085C125.739 124.525 125.773 124.94 125.982 125.106C126.16 125.237 126.661 125.315 126.98 125.237C127.638 125.08 127.624 124.99 127.85 124.539C128.251 123.751 128.514 124.195 128.342 123.568C128.272 123.292 127.829 122.913 128.525 122.815L128.504 123.244L128.504 123.308C128.455 124.975 128.082 125.405 128.114 125.81C128.197 126.779 127.399 127.983 127.173 128.67C126.808 129.838 127.702 130.232 127.99 130.415C128.415 130.103 128.74 129.888 128.997 129.598" fill="#ed6c00" fill-rule="evenodd" opacity="1" stroke="none"/>
<path d="M78.6226 114.673L78.6226 100.239C78.5525 99.2389 77.7067 98.4449 76.7009 98.4449L76.7466 98.419C71.1446 98.2895 66.012 97.7256 61.8731 96.8631C61.4936 96.7915 60.9724 96.8037 60.7499 97.1877C60.5076 97.5931 60.6143 97.9024 60.7499 98.387C60.881 98.8732 61.4936 100.915 61.4936 100.915C61.8837 102.636 64.1742 103.047 65.6387 103.36L72.1687 104.771C75.3004 105.453 76.166 107.896 76.166 111.119L76.166 113.959L76.166 113.986C76.166 116.502 75.7439 118.125 74.0797 118.198C71.9615 118.297 70.4208 116.185 69.5933 114.349C69.5719 114.314 69.5552 114.271 69.543 114.236L69.5095 114.173C69.4424 114.007 69.3754 113.849 69.319 113.701C68.7597 112.314 67.5177 109.282 67.5177 109.282C67.5177 109.282 67.3485 108.739 67.0879 108.564C66.8273 108.373 66.5911 108.314 66.265 108.314L64.0553 108.314L66.9051 118.181C67.4857 120.197 68.2004 122.526 69.7975 124.018C71.7542 125.862 74.9484 126.862 79.1925 126.862C83.4427 126.862 86.6415 125.862 88.6043 124.018C90.1922 122.526 90.91 120.197 91.5013 118.181L94.3373 108.314L92.1276 108.314C91.8106 108.314 91.5714 108.373 91.3047 108.564C91.0471 108.739 90.881 109.282 90.881 109.282C90.881 109.282 89.639 112.314 89.0798 113.701C89.0097 113.849 88.9533 114.007 88.8832 114.173L88.8618 114.236C88.8405 114.271 88.8344 114.314 88.8131 114.349C87.9749 116.185 86.4342 118.297 84.3083 118.198C82.6442 118.125 82.2327 116.502 82.2327 113.986L82.2327 113.959L82.2327 111.119C82.2327 107.896 83.0846 105.453 86.2376 104.771L92.7539 103.36C94.2169 103.047 96.5043 102.636 96.899 100.915C96.899 100.915 97.5071 98.8732 97.6442 98.387C97.7783 97.9024 97.8911 97.5931 97.6442 97.1877C97.4233 96.8037 96.9128 96.7915 96.5196 96.8631C92.3806 97.7256 87.2571 98.2895 81.6491 98.419L81.6978 98.4449C80.6814 98.4449 79.8402 99.2389 79.7731 100.239L79.7731 114.673C79.7731 114.993 79.5156 115.257 79.1925 115.257C78.8831 115.257 78.6226 114.993 78.6226 114.673" fill="#ed6c00" fill-rule="nonzero" opacity="1" stroke="none"/>
<path d="M79.5304 40.7351C79.5304 40.7351 75.1034 43.2115 73.5093 46.5474C72.8373 47.9646 73.2243 48.8759 75.7937 47.288C79.4359 45.0433 82.726 43.3456 86.6319 41.9527C90.9492 40.4364 98.8477 38.5849 99.4146 38.8546C99.6508 38.9704 99.6645 39.4124 99.2073 39.833C88.0217 50.1088 86.8147 57.765 89.8687 58.9735C91.3637 59.5755 93.9086 59.2326 96.1808 58.4874C98.4469 57.7452 100.649 56.7882 103.197 56.7135C109.172 56.5276 111.675 67.8504 105.221 78.5788C101.608 84.6029 91.9793 92.2515 91.2905 91.9696C90.9842 91.8431 90.8745 91.5048 91.0116 90.9501C91.1 90.5828 94.5548 82.983 91.8178 81.773C91.3881 81.5825 90.3198 81.8842 89.3064 84.2982C87.9897 87.4237 87.0007 87.9937 86.4627 87.8657C85.9278 87.7331 86.1107 86.8751 86.2021 86.2945C86.2859 85.7093 86.4094 85.2171 86.0741 85.4335C85.7648 85.6407 82.6834 89.0985 81.7187 89.0284C81.3667 88.9934 81.1488 88.6185 81.3743 88.1049C81.5846 87.5929 81.8239 86.898 81.8239 86.898C81.8239 86.898 76.5252 92.0504 70.0363 93.2863C69.5578 93.3838 68.2701 93.6932 67.8555 93.4753C67.63 93.364 67.4852 92.8245 67.8936 92.5441C68.3127 92.2653 75.1811 88.7114 78.1512 83.7099C79.0549 82.1906 79.0732 81.4179 78.8309 81.011C78.232 79.9839 75.3015 81.0019 73.3859 81.8233C71.4688 82.6386 68.5947 84.3103 64.9342 84.9291C60.399 85.7093 54.9905 84.3286 52.1957 80.8465C48.9741 76.8339 48.7805 72.8824 49.2408 68.879C50.6702 56.3158 62.6681 48.3563 66.8345 45.7946C71.8665 42.701 79.3155 39.4764 79.8885 39.7141C80.178 39.833 80.3121 40.2734 79.5304 40.7351" fill="#ed6c00" fill-rule="nonzero" opacity="1" stroke="none"/>
<path d="M116.421 130.328C116.674 130.919 116.953 130.943 117.244 131.449C117.131 131.829 116.913 132.245 116.773 132.646C116.561 133.28 116.688 133.374 116.125 133.815C115.394 132.871 115.563 131.21 115.203 130.226C114.534 128.382 112.631 128.723 112.501 129.915C112.424 130.815 113.545 131.597 114.254 133.546C114.655 134.648 114.824 135.806 114.421 136.917C113.768 138.741 111.674 140.255 110.174 141.451C108.445 142.822 110.165 143.879 111.246 143.455C111.937 143.182 112.462 142.702 112.972 142.158C113.739 141.355 115.084 138.917 115.528 139.385C116.034 139.909 115.322 138.965 115.633 139.508C115.773 139.733 115.689 140.022 115.703 140.303C115.714 140.881 115.475 141.771 115.112 142.245L111.727 145.843C111.319 146.186 110.918 146.349 110.875 146.715C111.052 146.693 110.868 146.75 111.101 146.622C111.136 146.602 111.235 146.542 111.265 146.51C112.265 145.855 112.001 145.997 113.198 145.809C114.569 145.608 115.513 144.782 116.424 143.527C118.251 141.007 117.646 140.233 117.318 137.967C117.254 137.541 117.149 136.82 117.273 136.468L119.179 132.527C119.708 131.347 120.526 130.704 119.236 129.915C118.789 129.648 118.338 129.589 117.867 129.694C117.574 129.761 116.518 130.25 116.421 130.328" fill="#ed6c00" fill-rule="evenodd" opacity="1" stroke="none"/>
<path d="M119.594 136.928C119.384 137.003 119.764 136.763 119.277 137.038C119.165 137.108 119.116 137.144 119.018 137.227C118.834 137.382 118.68 137.569 118.535 137.723C116.019 140.591 120.25 139.599 122.054 139.796C122.258 139.817 122.388 139.796 122.6 139.811C124.64 139.973 124.686 140.505 125.105 138.854C125.366 137.861 124.169 136.966 123.965 136.785C123.008 135.94 123.395 135.494 121.879 135.834C121.312 135.971 121.248 136.143 120.718 136.334C119.559 136.75 120.123 136.75 119.594 136.928" fill="#ed6c00" fill-rule="evenodd" opacity="1" stroke="none"/>
<path d="M88.0384 151.38C88.0384 151.388 87.9897 151.794 88.0034 151.794C87.4045 151.45 86.8772 151.324 86.8772 151.324C86.8559 151.289 87.7184 149.748 87.7352 149.716C87.7474 149.698 87.7504 149.688 87.7504 149.681C87.7641 149.673 87.7779 149.673 87.7916 149.67C87.7916 149.681 88.0522 151.289 88.0384 151.38M89.573 147.659L89.573 147.651C89.6508 147.552 89.7346 147.453 89.7666 147.351C89.9525 146.772 90.7312 146.333 91.1427 145.431C91.1732 145.363 91.2966 145.2 91.2128 145.211C91.1244 145.222 89.7422 146.534 89.6599 146.598C89.5944 146.654 89.538 146.689 89.5014 146.714C89.4892 146.183 89.3688 145.58 89.3688 145.56C89.3688 145.498 89.3719 145.426 89.3719 145.363C89.3719 145.348 89.3688 145.335 89.3688 145.321C89.3475 145.237 89.3688 145.2 89.4527 145.167C89.4709 145.159 89.5014 145.144 89.5014 145.13C89.509 145.082 89.5487 145.066 89.573 145.046C89.6355 144.99 89.7026 144.934 89.7773 144.899C89.8474 144.864 89.9175 144.821 89.9815 144.786C90.0653 144.745 90.1537 144.701 90.2375 144.67C90.3396 144.627 90.4386 144.589 90.5331 144.547C90.5407 144.541 90.5438 144.533 90.5545 144.533C91.8315 143.661 90.7693 143.413 90.7556 143.413C90.6916 143.401 90.3259 143.294 89.3338 143.597C89.2637 143.609 89.1646 143.449 89.1616 143.375C89.157 143.326 89.1296 143.273 89.1433 143.222C89.1433 143.218 89.0869 142.171 89.0656 142.073C89.0656 142.034 89.0549 141.996 89.0549 141.953C89.0519 141.893 89.0519 141.833 89.0549 141.773C89.0549 141.767 89.0549 141.761 89.0519 141.753C89.058 141.706 89.058 141.662 89.0656 141.616C89.0869 141.577 89.0869 141.541 89.0808 141.506C89.1296 141.014 89.1296 140.808 88.5947 140.555C87.9226 140.234 86.8925 140.246 86.4414 140.577C86.0893 140.831 86.097 141.063 86.2646 141.456C86.2859 141.496 86.2966 141.531 86.3149 141.56C86.3347 141.612 86.3637 141.668 86.3957 141.724C86.3957 141.746 86.4063 141.762 86.4094 141.781C86.4338 141.845 86.9366 144.195 86.9519 144.259C86.9549 144.291 86.9549 144.318 86.961 144.347C86.9687 144.42 86.9687 144.496 86.9793 144.571C86.9824 144.694 86.993 144.81 87.0037 144.934C87.0037 144.961 87.0037 144.984 86.9687 144.999C86.961 145.007 86.9519 145.025 86.9473 145.039C86.9473 145.095 86.9168 145.133 86.8848 145.178C86.8635 145.222 86.2996 145.595 85.716 145.99C85.4691 146.157 85.3213 146.418 85.1003 146.573C84.7513 146.802 84.3795 146.89 84.3582 146.918C84.3505 146.926 84.3368 146.932 84.3231 146.939C84.253 146.974 84.1753 147.009 84.122 147.066C84.0793 147.101 84.0412 147.137 84.0031 147.182C83.9635 147.235 83.9421 147.342 84.0031 147.354C84.2942 147.404 84.2728 148.206 84.6889 148.149C84.6995 148.157 84.7026 148.164 84.7163 148.168C84.823 148.206 84.9281 148.254 85.0409 148.28C85.0759 148.283 85.2375 148.254 85.2801 148.235C85.3015 148.221 85.6809 147.968 86.0619 147.587C86.4734 147.178 87.0388 146.932 87.057 146.91C87.0631 146.898 87.0921 146.883 87.1058 146.883C87.1058 146.883 87.1652 146.869 87.1866 146.848C87.2216 146.82 87.2643 146.791 87.3039 146.767C87.3131 146.756 87.3283 146.756 87.3283 146.756C87.3451 146.772 87.3481 146.788 87.3481 146.805C87.3481 146.898 87.3557 146.988 87.3557 147.081C87.3481 147.192 87.5416 148.404 87.5249 148.515C87.5112 148.576 87.5112 148.631 87.5066 148.687C87.5066 148.731 87.4868 148.765 87.4472 148.801C87.4197 148.832 87.3954 148.875 87.3557 148.902C87.2932 148.969 85.178 151.362 85.1491 151.394C85.111 151.439 85.0729 151.474 85.0195 151.496C85.0058 151.499 84.9906 151.511 84.9845 151.522C84.9342 151.566 84.9068 151.641 84.8504 151.676C84.8504 151.676 84.8473 151.679 84.8367 151.682C84.8321 151.738 84.794 151.753 84.7376 151.767C84.6995 151.778 84.4069 152.267 84.4008 152.527C84.4008 152.788 84.6889 152.956 84.7513 153.232C84.8321 153.597 85.2024 153.719 85.4386 153.692C85.7587 153.657 85.9842 153.414 85.9979 153.399C86.0223 153.379 86.6806 151.705 86.6989 151.662C86.7111 151.599 87.4152 152.154 87.7184 152.584C87.8449 152.767 88.0674 153.1 87.9897 153.526C87.9059 154.006 88.3021 154.506 88.8019 154.498C89.5487 154.483 90.2832 153.404 90.1217 152.174C89.9982 151.253 90.0302 151.034 90.0302 150.985C90.0226 150.88 89.9921 150.778 89.9738 150.676C89.9677 150.627 89.9677 150.586 89.9677 150.542C89.9677 150.423 89.9632 150.304 89.9388 150.184C89.9175 150.121 89.6264 147.826 89.6157 147.797C89.6111 147.748 89.5868 147.7 89.573 147.659" fill="#ed6c00" fill-rule="nonzero" opacity="1" stroke="none"/>
<path d="M95.6179 148.914C95.6179 148.914 96.1177 150.485 96.1345 150.465C96.1451 150.455 96.6739 150.732 96.68 150.735C96.7288 150.775 96.7821 150.789 96.8431 150.796C96.8431 150.796 96.8812 150.81 96.8842 150.818C96.9269 150.851 96.965 150.866 97.0077 150.874C97.029 150.88 97.0458 150.891 97.061 150.895C97.1037 150.909 97.1342 150.933 97.1692 150.936C97.2073 150.944 98.4889 151.493 99.3759 151.739C100.269 151.986 100.773 151.931 100.811 151.957C100.819 151.96 100.825 151.968 100.833 151.96C100.903 151.957 100.967 151.942 101.029 151.93C101.078 151.915 101.125 151.909 101.171 151.931C101.192 151.942 101.212 151.942 101.227 151.942C101.311 151.942 101.909 151.901 101.948 151.535C102.008 151.514 102.018 151.45 102.05 151.401C102.078 151.352 102.107 150.758 102.975 150.226C103.394 149.976 103.943 149.815 103.894 149.629C103.647 148.745 100.903 148.955 100.798 148.958C100.734 148.958 97.1448 148.692 97.0123 148.678C97.0184 148.664 95.6179 148.914 95.6179 148.914" fill="#ed6c00" fill-rule="nonzero" opacity="1" stroke="none"/>
<path d="M95.5755 147.981L95.2174 148.446C94.9568 148.522 94.2741 148.396 94.271 148.383C94.2847 148.383 93.7209 148.283 93.8443 148.164C93.8839 148.129 95.7523 146.989 96.0327 146.946C96.1485 146.936 95.9519 147.44 95.5755 147.981M99.0379 149.255L99.8791 149.11C98.8763 149.026 97.9254 148.847 97.4271 148.709C97.4515 148.67 98.8337 145.992 98.8337 145.989C98.9739 145.68 98.9403 145.578 98.8199 145.25C98.7986 145.268 98.5944 144.561 97.8202 144.702C97.7745 144.709 96.5828 145.244 96.4944 145.293C96.4807 145.299 96.307 145.343 96.2369 145.36C96.2018 145.371 96.1881 145.384 96.1592 145.399C96.1394 145.41 96.1165 145.419 96.083 145.441C96.0891 145.395 96.0891 145.371 96.0997 145.343C96.1043 145.293 95.9885 144.484 95.9763 144.406C95.9626 144.357 95.8925 143.955 96.0403 143.694C96.2018 143.403 98.9723 142.237 99.0592 142.14C99.8303 141.324 99.2908 141.126 98.9083 140.471C98.7636 140.21 98.2927 140.278 97.4408 140.527C97.2991 140.564 95.9702 141.201 95.9382 141.212C95.9275 141.215 95.9351 141.274 95.9275 141.26C95.9138 141.253 95.9138 141.232 95.9138 141.215L95.9138 141.119C95.9138 141.07 95.6608 139.551 95.6243 139.522C95.5968 139.494 95.417 139.071 94.6886 139.037C94.5407 139.032 94.204 139.058 94.0485 139.089C93.9083 139.115 93.5913 139.304 93.4649 139.328C93.2256 139.375 93.1326 139.648 93.1265 139.656C93.1128 139.67 93.1052 139.697 93.0884 139.705C93.0534 139.726 93.0641 139.761 93.0534 139.79C93.0427 139.839 93.0778 139.845 93.1052 139.868C93.1204 139.874 93.1265 139.878 93.1403 139.881C93.2469 139.945 93.3094 140.022 93.3033 140.148C93.3033 140.267 93.6538 142.598 93.6584 142.688C93.6584 142.803 93.6691 142.914 93.6264 143.024C93.6157 143.048 93.6051 143.075 93.602 143.104C93.5837 143.167 93.5761 143.223 93.57 143.287C93.5624 143.328 93.5487 143.373 93.5212 143.403C93.4923 143.429 93.471 143.449 93.4496 143.473C93.4009 143.533 92.0004 144.9 91.9303 144.956C91.8952 144.983 91.8663 145.008 91.8251 145.026C91.7687 145.046 91.7047 145.046 91.6422 145.067C91.339 145.139 91.2719 145.546 91.2552 145.575C91.2399 145.605 91.2399 145.645 91.2399 145.683C91.2521 145.715 91.2399 145.831 91.2765 145.838C91.2902 145.843 91.4304 146.312 91.7337 146.218C92.2823 146.046 92.4514 146.424 92.7852 146.134C92.7882 146.126 92.8035 146.123 92.8202 146.113C92.8309 146.102 92.8446 146.096 92.8629 146.088C92.9574 146.04 93.317 145.537 93.3628 145.497C93.4496 145.406 93.6614 145.09 93.7453 145C93.7605 144.997 93.7696 144.997 93.7696 144.99C93.7696 144.941 93.922 146.264 93.9281 146.292C93.922 146.299 93.9464 146.363 93.9571 146.693C93.9952 147.635 91.8068 148.29 91.6986 148.306C91.6773 148.306 91.4167 148.383 91.8388 148.621C91.9577 148.693 92.5002 149.002 93.3902 149.199C93.9114 149.311 94.3274 149.575 94.3625 149.578C94.3655 149.602 94.4539 149.61 94.4981 149.642C94.4844 149.663 94.4646 149.683 94.4569 149.698C94.4463 149.72 94.4295 149.737 94.4143 149.758C94.3929 149.787 94.3762 149.811 94.3518 149.843C94.3381 149.866 94.3152 149.895 94.3015 149.922C94.2664 149.98 93.8093 150.607 93.0138 150.683C92.9863 150.691 92.962 150.68 92.93 150.683C92.8279 150.697 89.9278 150.398 89.876 150.409L89.5941 150.343L89.6398 150.624L89.9111 150.697C89.9873 150.677 91.2018 151.035 91.2719 151.021L91.2826 151.029C91.3115 151.058 92.7959 151.613 92.8141 151.632C92.8202 151.632 92.8202 151.64 92.8202 151.643C92.8111 151.655 92.7989 151.666 92.7852 151.677C92.8035 151.721 92.8599 151.699 92.8903 151.725C92.8446 151.757 92.8035 151.774 92.7745 151.766C92.677 151.733 92.5779 151.757 92.4728 151.733C92.4591 151.733 92.4469 151.739 92.4362 151.739C92.4728 151.774 92.5139 151.782 92.5429 151.811C92.5703 151.837 92.613 151.834 92.6404 151.852C92.677 151.87 93.0778 152.12 93.1509 152.169C93.1646 152.182 93.1905 152.193 93.2104 152.19C93.3033 152.19 93.4009 152.186 93.503 152.182C93.5563 152.182 93.6051 152.198 93.6584 152.224C93.6965 152.25 93.7315 152.295 93.7742 152.253L93.7955 152.253C93.823 152.26 94.4539 152.563 95.0406 152.182C95.4109 151.948 95.7873 151.367 95.7873 151.352C95.8071 151.344 96.2155 150.532 96.2582 150.492C96.2658 150.486 96.2902 150.486 96.2933 150.492C96.3359 150.529 96.3893 150.55 96.4411 150.556C96.4548 150.556 96.4685 150.563 96.4807 150.578C96.4944 150.588 99.4036 150.745 99.6505 150.803C99.6581 150.809 99.6429 150.803 99.6505 150.803L99.0379 149.255Z" fill="#ed6c00" fill-rule="nonzero" opacity="1" stroke="none"/>
<path d="M69.7341 146.619C69.6701 146.461 69.6289 146.299 69.7097 146.087C69.8118 145.834 69.9093 145.837 70.2126 145.825C70.0998 146.202 70.1349 146.59 69.7341 146.619M75.0404 143.442C74.7737 142.957 74.1962 143.012 74.0407 143.46C73.8015 144.153 74.1535 144.048 73.4631 144.554C73.1904 144.757 72.8414 145.149 72.5915 145.278C71.8249 145.676 71.4729 145.968 71.4729 145.968C71.4165 145.402 71.6619 144.208 71.8737 143.934C72.6829 142.879 72.2364 143.737 72.8688 142.372C73.2422 141.557 73.5546 140.67 73.6262 139.719C73.6689 139.086 73.8304 138.606 73.8441 138.119C73.8716 137.343 73.2254 135.869 72.6204 135.7C72.436 136.426 72.5 137.492 72.4436 138.273C72.3796 139.297 72.151 139.751 72.0276 140.636C71.9164 141.401 71.0492 143.681 70.7765 144.068C70.557 144.385 70.6104 144.318 70.3879 144.37C69.9734 143.555 70.6728 143.413 70.9791 143.012C71.1651 142.377 70.9898 141.915 70.4382 141.788C69.7981 141.639 69.4948 141.944 69.2419 142.313C68.9097 142.779 68.6506 142.901 68.3123 143.189C67.8764 143.547 67.8551 143.981 67.2714 143.981C67.0886 143.625 67.2638 143.773 66.9621 143.111C66.796 142.724 66.9118 142.64 67.0886 142.206C67.3126 141.654 67.148 141.813 67.0886 141.327C67.0383 140.943 67.151 140.536 67.084 140.176L66.9407 139.73C66.5323 138.587 65.1029 138.748 64.5543 139.199L64.3363 139.388C64.1535 139.536 64.2662 139.416 64.1047 139.563C63.1751 140.423 63.0547 141.028 62.433 141.52C61.9438 141.907 61.8249 142.232 60.5219 143.222C60.1425 143.52 59.3531 144.038 59.2129 144.428C59.5863 144.391 59.4415 144.329 59.7691 144.301C60.4473 144.234 60.0434 144.378 60.2583 144.492L61.5079 144.618C62.2105 144.551 63.0059 144.053 63.4784 144.064C63.5622 144.068 63.5972 144.053 63.6186 144.041C63.5119 143.966 63.646 144.012 63.6186 144.041C63.643 144.064 63.675 144.089 63.7374 144.125C62.5244 144.891 63.5119 144.749 62.3171 145.391C61.7426 145.691 61.8417 145.546 61.3312 145.508C61.0645 145.49 59.8773 146.157 59.5375 146.321C59.1504 146.503 57.9541 146.988 57.5869 147.017C56.93 147.081 56.866 146.904 56.4271 146.756C55.2446 147.674 55.9761 148.544 56.4119 148.649C57.5381 148.91 60.0084 147.622 60.9654 147.207C61.3174 147.06 61.6664 146.834 61.9575 146.708C62.7179 146.385 62.7179 146.433 62.9358 146.59C62.7819 146.936 61.9285 148.087 61.6192 148.27C61.2123 148.515 61.1056 148.501 60.8633 149.03C60.6835 149.448 60.4869 149.748 60.5509 150.254C60.8526 150.586 61.1559 150.859 61.5917 150.903C62.2958 150.965 62.2105 150.493 62.7316 150.342C62.9496 150.796 62.9176 151.38 63.1644 151.726C63.4464 152.13 64.251 152.192 64.5604 151.858L66.2153 147.383C66.3921 147.101 66.2428 147.544 66.3845 147.017C66.6649 145.979 66.9727 146.052 67.9328 145.022C68.1538 144.775 68.678 144.251 69.1504 144.301C69.1291 145.299 68.4738 145.636 68.1934 146.63C67.8688 147.741 67.084 147.186 67.215 148.899C67.9602 149.198 67.9252 149.396 68.5378 148.853C68.8411 148.587 69.4141 148.172 69.9093 148.283C70.1318 149.015 69.3394 151.253 69.094 152.172C68.6643 153.734 69.3333 152.442 68.2483 154.688C67.6402 155.958 67.5168 156.342 68.2635 156.807C68.7237 157.09 69.8682 157.319 70.0358 155.743L70.2614 152.531C70.3178 152.035 71.4333 150.431 71.29 148.283C71.2154 147.104 72.0459 146.961 73.4007 146.211C74.5162 145.598 75.7551 144.737 75.0404 143.442" fill="#ed6c00" fill-rule="evenodd" opacity="1" stroke="none"/>
<path d="M47.7421 139.867L47.3474 140.106C46.9649 140.359 47.2697 140.244 46.8064 140.373C46.7775 140.381 46.7394 140.384 46.715 140.391C46.0033 140.577 46.2121 140.82 45.1027 140.792C44.7506 140.786 44.6699 140.754 44.1594 140.373L44.0009 140.216C44.5617 139.571 44.2858 140.324 46.1511 140.029C46.6937 139.951 46.6266 139.832 47.1295 139.663C48.178 139.303 47.5196 139.241 48.1399 139.326C48.1642 139.712 48.0332 139.706 47.7421 139.867M53.85 138.883C53.1612 137.449 51.7531 137.289 50.441 136.636C49.8177 136.327 50.0539 136.201 49.5327 136.053C49.298 135.986 48.8957 136.077 48.6001 136.074C47.3276 136.053 44.4443 135.004 43.0621 134.629C42.0883 134.367 39.9015 133.738 39.0892 133.758C39.0892 133.758 38.5574 133.861 38.4248 133.977C38.1703 134.184 38.3608 134.887 38.3608 134.887C38.8744 135.3 40.9302 136.097 41.6754 136.109L44.9823 136.801C45.5431 136.961 45.5675 136.806 45.9957 136.812C46.299 136.816 46.7988 136.932 47.0944 136.995C46.7744 137.491 46.5032 137.418 46.0353 137.554C45.5248 137.709 45.3206 137.84 44.8787 137.974L43.0118 138.139C42.829 138.121 42.7985 138.09 42.6324 138.067C42.1965 137.997 42.5486 138.034 42.259 138.034C41.5138 138.029 40.6132 138.142 39.7095 138.072C38.0164 137.952 38.2419 137.459 37.643 139.159C40.2535 141.795 40.3739 140.071 41.4635 140.817C41.5702 141.457 41.0841 141.13 41.7455 142.47C42.5409 144.082 43.4248 143.477 45.0356 143.272C45.7778 143.182 46.0353 142.985 46.6937 142.709C48.3547 142.013 49.9762 142.045 50.4303 140.548C50.6056 139.989 50.6208 140.12 50.38 139.651C50.1835 139.255 49.7126 138.375 49.8253 138.002C51.9009 138.424 52.9997 140.922 53.85 138.883" fill="#ed6c00" fill-rule="evenodd" opacity="1" stroke="none"/>
<path d="M47.0769 132.084C47.1013 132.917 47.1089 133.119 47.848 133.772C48.8965 134.716 50.0547 136.502 51.0452 136.337C51.859 136.208 52.211 135.549 52.2705 134.784C52.3238 134.092 51.9992 133.66 51.7813 133.012C51.5527 132.291 51.0254 132.055 50.4433 131.499C49.3887 130.482 48.6176 130.232 47.5935 131.032L47.0769 132.084Z" fill="#ed6c00" fill-rule="evenodd" opacity="1" stroke="none"/>
<path d="M649.637 59.2731C648.905 62.2249 649.919 63.121 649.553 65.8625C648.032 66.9933 645.978 67.9016 644.303 69.0491C641.677 70.8199 641.895 71.559 638.462 71.5819C638.408 65.9418 643.831 60.1646 645.309 55.4221C648.081 46.5544 639.824 42.3956 635.892 46.5757C632.959 49.7028 635.048 55.8442 632.11 65.2393C630.453 70.5623 627.774 75.4145 623.058 78.4624C615.295 83.4975 602.942 83.246 593.808 83.4959C583.232 83.7672 586.79 92.6806 592.092 94.1162C595.505 95.0534 598.89 94.7639 602.419 94.1756C607.7 93.2963 619.806 87.9016 620.178 90.9495C620.588 94.3554 620.58 88.7885 620.226 91.7373C620.072 92.961 618.957 93.8205 618.174 94.9193C616.546 97.1488 613.081 99.8233 610.333 100.567L587.066 104.517C584.519 104.662 582.552 104.124 581.292 105.39C582.014 105.797 581.183 105.517 582.465 105.693C582.633 105.715 583.2 105.748 583.404 105.759C589.08 106.103 587.665 105.861 592.724 108.584C598.594 111.731 604.58 111.295 611.634 109.154C625.885 104.845 625.807 100.183 631.083 90.6813C632.072 88.9226 633.712 85.8748 635.213 84.8949L653.86 75.4648C659.256 72.484 664.239 72.385 661.558 65.7391C660.644 63.4745 659.08 61.9354 656.964 61.0027C655.676 60.4297 650.242 59.2533 649.637 59.2731" fill="#04383c" fill-rule="evenodd" opacity="1" stroke="none"/>
<path d="M642.789 93.2861C641.727 92.9478 643.873 93.1276 641.214 92.771C640.607 92.6872 640.316 92.7162 639.693 92.7497C638.518 92.8167 637.421 93.0606 636.416 93.2709C618.563 96.9131 637.588 105.222 643.896 111.092C644.592 111.749 645.168 112.053 645.929 112.716C653.254 119.13 651.899 121.259 658.257 116.262C662.108 113.24 660.101 106.442 659.831 105.176C658.611 99.2599 661.404 98.6549 654.62 95.6512C652.099 94.5373 651.326 95.031 648.772 94.2279C643.135 92.4845 645.298 94.0801 642.789 93.2861" fill="#04383c" fill-rule="evenodd" opacity="1" stroke="none"/>
<path d="M724.065 75.1605C721.374 76.5549 721.689 78.2998 718.161 77.6612L720.165 74.8877C721.602 73.6061 721.179 74.6423 722.767 73.3074C726.508 70.1589 724.083 70.2016 728.949 71.2882C727.988 74.1913 726.398 73.9551 724.065 75.1605M715.909 56.8703C716.232 54.8907 717.985 53.638 720.124 53.2205C719.541 55.5673 718.449 56.9175 715.909 56.8703M749.21 96.686C749.359 96.0444 751.322 94.1715 748.436 93.4187C745.709 92.7085 741.548 94.2568 738.667 94.4108C733.404 94.7003 728.471 95.9042 727.739 95.8676C726.089 93.7646 725.888 92.8 727.768 90.284L734.769 79.6058C736.043 77.9752 736.842 75.1452 735.58 73.1352C733.939 70.5841 731.962 72.4814 729.836 71.0169C730.213 68.4384 732.261 68.4019 734.269 67.6292C735.86 67.0242 738.264 66.4588 740.086 65.7548C741.686 65.1376 741.164 64.9471 742.659 64.0769C743.791 63.4201 744.088 63.5969 745.037 62.8289C745.994 62.041 748.859 57.2833 743.884 56.9145C743.268 56.8703 741.976 56.9404 741.266 56.9404C739.548 56.9404 737.837 56.7606 736.127 57.0775C734.175 57.4448 722.468 66.7895 716.861 67.3732C717.113 64.461 716.549 67.0943 717.675 65.6085L721.63 62.3077C730.027 55.7578 726.732 57.6825 731.732 52.6261C734.038 50.3098 736.288 51.2851 736.479 47.617C734.643 44.9014 732.64 45.3341 730.511 43.9718C731.218 39.6788 738.774 41.7986 733.826 35.7974L731.188 33.8224C731.863 30.5536 732.834 30.3433 730.336 27.623C723.868 26.6264 724.382 33.3439 722.471 37.1674C721.374 39.3664 721.546 37.9233 720.153 39.4685C718.295 41.538 721.267 39.3664 717.011 42.6139C716.651 42.8806 716.261 43.2829 715.882 43.5207C714.769 44.2354 714.128 44.3665 712.666 44.2445C711.918 42.4631 713.03 42.1659 711.098 40.3463C707.309 36.7742 703.67 41.2272 701.95 44.1363C700.019 44.0571 699.539 43.446 698.097 42.9477L695.993 44.4289C692.439 47.1933 692.785 55.3997 692.847 59.5996C692.89 62.5088 691.75 64.3101 692.101 65.5917C692.401 66.6615 694.156 68.5253 695.705 69.2141C698.879 70.6405 699.033 70.2489 701.363 69.1379C705.424 67.2025 705.1 69.7841 706.381 66.721C706.93 65.4104 706.331 62.5149 709.441 64.2583L708.055 65.93C707.977 66.0123 707.887 66.1221 707.823 66.2089C702.425 72.7374 699.611 73.3104 698.477 75.063C695.786 79.1928 688.829 81.5915 685.804 83.6716C680.671 87.233 683.093 91.6098 683.649 93.2297C686.33 93.2785 688.294 93.4476 690.245 93.0819C690.337 92.9691 690.469 92.8426 690.539 92.771C690.603 92.7009 690.754 92.5546 690.827 92.4693L697.858 85.8646C702.783 80.831 701.531 83.5101 705.641 79.6302C711.575 74.0495 711.848 76.2074 714.195 73.5543C716.676 70.7472 716.24 73.2007 719.175 71.3065C722.038 69.4518 719.35 69.6941 724.083 69.5844C720.565 76.2699 715.662 74.1455 716.401 79.9151C714.649 80.3967 709.484 83.8088 707.876 84.9532C705.202 86.8521 703.396 88.3242 699.624 89.6759C693.811 91.7622 694.771 90.3022 694.335 92.864C697.706 95.2809 702.756 92.5881 705.901 91.7363C706.183 91.3294 713.442 88.2967 714.696 87.6201C717.465 86.1465 720.199 83.6061 724.17 83.3851C721.804 89.3102 713.178 91.4635 712.313 93.6015C711.046 96.7058 713.228 97.9097 711.947 99.3529C710.92 101.194 712.119 100.007 709.611 100.688L700.862 102.846C697.809 103.862 689.745 103.545 688.407 104.461C688.654 111.893 714.227 104.391 717.683 107.044C718.309 107.843 718.132 106.72 718.323 109.004C718.379 109.627 718.295 110.289 718.161 110.845C717.409 113.955 714.515 116.396 711.221 116.966C711.799 119.556 711.496 116.531 711.918 118.599C712.395 120.907 711.039 120.308 711.194 124.066C716.156 127.844 722.124 130.229 725.057 122.942C725.741 121.278 726.327 120.619 726.767 118.896C727.69 115.264 727.07 109.296 729.301 105.959C741.462 105.179 750.865 109.106 749.591 100.203C749.303 98.184 748.753 98.661 749.21 96.686" fill="#04383c" fill-rule="evenodd" opacity="1" stroke="none"/>
<path d="M254.602 92.417C254.25 95.0519 255.199 106.122 253.538 108.67L251.457 108.845L250.64 106.498C250.33 105.559 250.449 105.294 249.549 104.616C248.078 103.504 246.734 103.834 245.327 103.257C244.936 100.843 246.167 98.6895 247.092 96.3015C247.586 94.9955 247.648 94.8751 248.099 93.31C248.718 91.1643 249.021 91.4706 249.306 89.7379C248.061 87.3393 246.403 88.0067 245.548 84.5398C246.411 83.1302 246.579 83.3725 247.741 82.3438L254.482 76.3167C255.981 79.9726 255.129 88.4822 254.602 92.417M241.576 78.2841C240.259 80.4511 240.748 80.4313 238.686 82.1914C236.853 83.7672 235.382 89.0842 231.441 87.9016L231.111 82.4688L236.72 77.6014C238.212 76.4005 241.076 73.5721 243.334 73.8571C244.2 76.7099 243.067 75.8275 241.576 78.2841M237.528 104.918L236.966 105.398C234.474 107.522 225.065 111.172 222.961 110.021C224.713 108.691 227.191 107.164 229.977 105.175C231.304 104.229 232.299 103.606 233.701 102.624C235.273 101.529 235.896 101.033 238.296 101.294C238.506 103.272 238.697 103.688 237.528 104.918M267.629 63.7184C267.664 59.238 266.967 59.0856 265.123 58.3191C259.884 56.1399 258.127 53.7077 253.468 56.3898C251.505 57.5175 251.33 58.8387 249.739 59.8979L240.379 66.1719C238.493 67.5815 237.662 68.7229 235.334 68.8997C235.742 66.1688 235.847 65.7741 237.662 63.9957C239.444 62.26 239.288 61.5513 241.006 60.0366C247.694 54.1222 241.399 58.5004 249.817 53.8037C251.857 52.6745 252.406 51.3974 252.118 48.6513C251.604 43.6056 250.245 47.7705 247.674 41.3608C246.909 39.4193 247.135 40.0457 247.455 38.6086C248.17 35.4221 248.57 35.2453 248.029 31.4964C241.449 27.1151 240.27 30.1736 240.27 30.1782C240.379 30.2331 240.116 30.4403 240.076 30.5241L235.157 44.8735C232.81 50.6613 221.452 54.6693 215.664 56.0652C212.694 56.7677 214.788 57.0298 211.912 57.4764L199.251 60.4008C196.944 61.2801 197.316 60.8077 196.044 62.4367C195.065 63.7031 194.959 64.2868 195.114 66.3334C197.651 67.9092 198.052 68.5858 202.049 68.3877C208.084 68.0692 221.554 63.0798 225.114 64.0018C225.608 64.9375 225.643 63.8129 225.431 65.7117C225.241 67.4048 220.582 74.174 219.329 74.7669C216.388 76.1795 215.945 73.8952 213.756 78.0082C212.363 80.6385 212.834 82.3118 210.998 84.1558C209.885 85.2743 209.878 85.0336 208.966 86.242C207.689 87.9229 208.415 87.3316 206.705 88.6727C201.132 93.054 204.66 91.9354 200.033 94.9909C197.985 96.3533 196.923 98.1272 195.391 99.1436C193.791 100.206 193.087 99.9711 191.982 100.541C189.329 101.913 187.388 110.323 194.776 110.282C201.461 110.245 195.579 104.363 212.909 92.7858C214.692 91.5925 217.049 90.3856 219.203 91.3015C220.167 91.7084 220.765 92.356 221.825 92.8711C223.32 93.595 223.974 93.4182 225.298 93.9013C225.684 97.606 223.971 96.8394 221.874 98.6834C220.378 100.006 219.364 101.867 217.296 102.947C216.617 103.301 215.283 103.95 214.495 104.275C213.291 104.758 212.455 104.665 211.441 105.404C209.253 106.993 209.203 110.864 213.246 113.371C218.852 116.847 216.507 117.729 222.436 116.347C226.353 115.427 233.56 112.652 236.931 114.116C237.353 115.306 236.995 118.522 234.75 119.32C233.877 119.63 234.376 119.345 233.398 119.561L232.095 119.901C232.473 123.607 233.619 120.791 234.398 126.594L240.492 127.6C244.925 120.605 237.304 114.56 245.234 112.126C247.997 111.266 247.831 110.543 249.895 109.436C255.513 112.294 251.371 113.712 253.279 119.13C254.721 123.21 261.344 124.121 261.344 124.121C264.834 122.124 263.701 115.855 263.836 111.568L264.39 97.5222C264.465 95.3064 265.347 90.4801 265.495 84.5291C265.573 82.0375 266.291 80.8641 266.685 77.9336C267.065 75.032 266.995 73.5629 266.952 70.4709C266.925 68.2002 267.607 66.2618 267.629 63.7184" fill="#04383c" fill-rule="evenodd" opacity="1" stroke="none"/>
<path d="M498.19 98.6557C498.169 98.6968 497.523 100.451 497.561 100.484C495.284 98.2412 493.074 97.0754 493.053 97.0571C493.021 96.9123 498.616 91.0193 498.747 90.8928C498.789 90.8577 498.817 90.7983 498.858 90.7724C498.908 90.7511 498.972 90.7587 499.036 90.7587C499.032 90.8151 498.359 98.261 498.19 98.6557M509.26 83.8339L509.26 83.8111C509.731 83.4438 510.203 83.1146 510.464 82.7032C511.948 80.3167 515.908 79.2637 518.803 75.7205C519.007 75.4645 519.722 74.8656 519.33 74.8138C518.936 74.7666 511.266 79.032 510.859 79.2317C510.499 79.4085 510.231 79.4999 510.021 79.573C510.554 77.182 510.717 74.3688 510.741 74.2774C510.822 73.9787 510.908 73.6922 510.985 73.3996C511.005 73.3356 511.01 73.2731 511.01 73.2061C511.02 72.8007 511.147 72.6635 511.561 72.6056C511.653 72.5873 511.794 72.563 511.822 72.502C511.906 72.3115 512.089 72.2887 512.23 72.2109C512.578 72.0311 512.93 71.865 513.308 71.7766C513.658 71.6974 514.004 71.6014 514.355 71.5282C514.781 71.4383 515.207 71.353 515.632 71.2874C516.115 71.2128 516.596 71.1549 517.079 71.0863C517.121 71.0848 517.166 71.0558 517.198 71.0436C523.849 68.5977 519.423 66.3179 519.346 66.2798C519.085 66.1472 517.576 65.2816 512.835 65.4813C512.505 65.4965 512.238 64.6324 512.293 64.3124C512.343 64.0762 512.287 63.8339 512.399 63.6099C512.413 63.5748 513.356 58.875 513.392 58.4072C513.405 58.2228 513.427 58.0414 513.468 57.8616C513.523 57.5965 513.591 57.3343 513.666 57.0707C513.672 57.0402 513.68 57.0052 513.683 56.9701C513.757 56.7659 513.827 56.5632 513.899 56.3682C514.01 56.2097 514.067 56.0558 514.071 55.8973C514.865 53.7683 515.088 52.854 513.032 51.1243C510.383 48.904 505.773 47.79 503.405 48.7363C501.558 49.477 501.308 50.5239 501.61 52.4669C501.618 52.6559 501.659 52.8266 501.703 52.979C501.752 53.2441 501.801 53.5199 501.863 53.8004C501.871 53.8933 501.881 53.9893 501.892 54.0838C501.924 54.384 501.497 65.4325 501.462 65.7342C501.445 65.8638 501.435 65.9918 501.413 66.1183C501.349 66.4612 501.287 66.8025 501.223 67.1393C501.118 67.6818 501.019 68.2274 500.929 68.773C500.906 68.9147 500.865 69.0122 500.717 69.0518C500.653 69.0716 500.575 69.1341 500.563 69.1936C500.488 69.4374 500.295 69.5745 500.126 69.7346C499.957 69.8915 497.064 70.9369 494.018 72.0189C492.695 72.4898 491.75 73.4849 490.583 73.901C488.777 74.541 487.011 74.5166 486.889 74.5944C486.839 74.6325 486.765 74.6386 486.704 74.6477C486.343 74.73 485.981 74.8138 485.656 74.9875C485.438 75.1049 485.205 75.2146 485.016 75.37C484.777 75.5636 484.54 76.0131 484.812 76.1366C486.072 76.6943 485.059 80.2283 486.97 80.463C486.989 80.4996 487.015 80.5392 487.049 80.5605C487.495 80.8516 487.895 81.2082 488.373 81.4398C488.516 81.5069 489.26 81.5404 489.507 81.4962C489.597 81.4795 491.567 80.7647 493.701 79.5212C496.023 78.168 498.786 77.726 498.89 77.6468C498.957 77.5919 499.077 77.5538 499.155 77.5767C499.301 77.6148 499.432 77.5797 499.562 77.5264C499.758 77.4441 499.964 77.3557 500.161 77.281C500.21 77.2628 500.266 77.2704 500.33 77.2689C500.336 77.3633 500.357 77.4441 500.341 77.5096C500.217 77.918 500.161 78.3371 500.053 78.741C499.911 79.2515 499.356 84.8306 499.155 85.335C499.056 85.5804 498.984 85.8272 498.894 86.068C498.827 86.2585 498.69 86.3972 498.521 86.5023C498.335 86.6197 498.169 86.7645 497.982 86.8711C497.628 87.0784 485.466 95.3137 485.306 95.4249C485.094 95.5789 484.873 95.7053 484.608 95.7282C484.545 95.7343 484.486 95.7694 484.432 95.8059C484.158 95.9598 483.96 96.2555 483.637 96.3393C483.622 96.3393 483.617 96.353 483.609 96.3606C483.503 96.6075 483.3 96.6136 483.067 96.6182C482.855 96.6212 481.013 98.4469 480.696 99.6203C480.379 100.774 481.476 101.857 481.445 103.159C481.406 104.866 482.887 105.836 483.978 105.989C485.438 106.192 486.704 105.361 486.79 105.32C486.93 105.253 491.787 98.5505 491.877 98.3737C492.011 98.1269 494.524 101.379 495.382 103.64C495.747 104.608 496.354 106.341 495.523 108.156C494.601 110.183 495.795 112.863 498.026 113.406C501.371 114.204 505.883 110.233 506.557 104.581C507.057 100.344 507.438 99.3933 507.477 99.1662C507.556 98.6892 507.564 98.2122 507.62 97.7398C507.642 97.5371 507.671 97.3329 507.723 97.1348C507.86 96.5999 507.98 96.0619 507.994 95.5027C508 95.1994 509.295 84.6569 509.303 84.5045C509.317 84.2805 509.274 84.058 509.26 83.8339" fill="#04383c" fill-rule="nonzero" opacity="1" stroke="none"/>
<path d="M534.721 96.3296C534.721 96.3296 535.154 103.884 535.27 103.814C535.313 103.783 537.355 105.616 537.39 105.647C537.545 105.883 537.769 106.01 538.03 106.096C538.108 106.122 538.184 106.189 538.226 106.253C538.332 106.442 538.501 106.54 538.69 106.633C538.772 106.674 538.835 106.749 538.909 106.805C539.051 106.906 539.18 107.037 539.331 107.099C539.516 107.171 544.56 111.08 548.24 113.193C551.928 115.306 554.241 115.636 554.371 115.798C554.385 115.827 554.427 115.84 554.462 115.845C554.772 115.875 555.081 115.904 555.391 115.912C555.613 115.921 555.82 115.932 556.003 116.087C556.07 116.147 556.172 116.165 556.264 116.189C556.622 116.299 559.339 116.784 559.915 115.22C560.215 115.176 560.333 114.918 560.511 114.739C560.712 114.539 561.503 111.918 565.999 110.555C568.129 109.908 570.761 109.83 570.744 108.943C570.656 104.722 558.195 102.54 557.721 102.421C557.46 102.364 541.774 97.0824 541.197 96.869C541.238 96.8111 534.721 96.3296 534.721 96.3296" fill="#04383c" fill-rule="nonzero" opacity="1" stroke="none"/>
<path d="M535.623 92.1179L533.462 93.7637C532.245 93.846 529.368 92.4973 529.345 92.4196C529.409 92.4379 527.009 91.3681 527.691 90.9597C527.912 90.8576 537.522 87.9088 538.825 88.0642C539.342 88.1267 537.903 90.1474 535.623 92.1179M549.547 101.737L553.473 102.055C549.119 100.548 545.102 98.6692 543.02 97.4806C543.159 97.3251 552.361 86.9868 552.387 86.9655C553.377 85.7539 553.336 85.2739 553.181 83.6814C553.068 83.7271 552.956 80.3318 549.339 80.0925C549.127 80.0788 543.229 81.0831 542.755 81.2004C542.699 81.2142 541.878 81.1959 541.527 81.2035C541.397 81.2111 541.274 81.2614 541.148 81.2949C541.045 81.3163 540.943 81.3467 540.767 81.3909C540.841 81.2004 540.872 81.0785 540.936 80.9642C541.049 80.7509 541.426 77.0112 541.465 76.6698C541.486 76.4382 541.605 74.5607 542.554 73.5732C543.624 72.4577 557.252 70.4247 557.772 70.094C562.12 67.3449 559.986 65.8392 559.029 62.4973C558.648 61.1867 556.483 60.9291 552.428 61.0693C551.753 61.0922 545.091 62.3936 544.933 62.3997C544.884 62.4073 544.849 62.6756 544.828 62.6146C544.799 62.5491 544.807 62.4668 544.828 62.3906C544.849 62.2504 544.884 62.1163 544.919 61.973C544.973 61.7505 545.602 54.6886 545.483 54.5195C545.387 54.3839 545.059 52.2839 541.852 51.3147C541.202 51.1166 539.675 50.8544 538.965 50.8057C538.29 50.76 536.658 51.2354 536.073 51.2034C534.933 51.1409 534.237 52.2443 534.2 52.2671C534.121 52.3266 534.054 52.4302 533.968 52.4546C533.785 52.5033 533.793 52.6649 533.723 52.7807C533.603 52.9758 533.758 53.0611 533.863 53.1693C533.906 53.2196 533.952 53.2638 533.997 53.308C534.394 53.6798 534.602 54.1233 534.433 54.6673C534.267 55.2068 533.187 65.9581 533.089 66.3757C532.97 66.8786 532.885 67.3921 532.575 67.8295C532.505 67.9346 532.428 68.0428 532.371 68.1678C532.248 68.4192 532.132 68.6798 532.027 68.942C531.942 69.1264 531.844 69.2925 531.681 69.4022C531.562 69.4906 531.407 69.5409 531.294 69.6323C531.02 69.8426 523.196 74.3184 522.835 74.4967C522.652 74.5851 522.484 74.6582 522.287 74.6856C522.002 74.7253 521.724 74.6521 521.428 74.6521C519.992 74.6521 519.253 76.3803 519.113 76.4976C518.987 76.6088 518.941 76.7719 518.936 76.9502C518.927 77.095 518.788 77.6085 518.93 77.6817C518.971 77.703 519.07 79.9706 520.52 79.896C523.167 79.7664 523.476 81.6348 525.288 80.7219C525.315 80.6838 525.404 80.6838 525.468 80.6655C525.538 80.6412 525.616 80.6168 525.686 80.5985C526.157 80.4918 528.359 78.6829 528.604 78.5351C529.078 78.2303 530.386 77.0675 530.866 76.7734C530.901 76.7475 530.974 76.7765 530.984 76.7399C531.041 76.5311 530.191 82.5918 530.218 82.7381C530.169 82.7686 530.187 83.052 529.874 84.547C528.987 88.7881 518.479 89.2117 517.987 89.1401C517.868 89.1188 516.629 89.163 518.219 90.7098C518.691 91.1669 520.753 93.1724 524.482 95.0453C526.672 96.1502 528.237 97.7899 528.374 97.8539C528.374 97.9621 528.746 98.0917 528.913 98.2974C528.824 98.3675 528.746 98.4391 528.664 98.5062C528.578 98.5702 528.493 98.6403 528.411 98.7119C528.29 98.8033 528.177 98.9085 528.062 99.0136C527.946 99.1127 527.825 99.2102 527.713 99.3215C527.516 99.5196 524.742 101.78 521.117 101.231C520.998 101.217 520.885 101.161 520.763 101.136C520.274 101.069 507.705 96.4428 507.449 96.4428C507.402 96.4428 506.324 95.8195 506.283 95.8164L506.17 97.1057C506.198 97.1285 507.258 97.761 507.289 97.761C507.655 97.7473 512.653 100.723 512.996 100.766C513.004 100.766 513.014 100.781 513.019 100.791C513.116 100.949 519.087 105.108 519.154 105.225C519.169 105.242 519.169 105.271 519.173 105.285C519.105 105.32 519.043 105.356 518.987 105.384C519.02 105.615 519.275 105.58 519.38 105.728C519.142 105.809 518.952 105.841 518.834 105.771C518.43 105.524 517.944 105.513 517.537 105.292C517.487 105.263 517.406 105.285 517.339 105.279C517.473 105.461 517.664 105.545 517.745 105.699C517.842 105.882 518.028 105.893 518.148 106.008C518.283 106.129 519.779 107.699 520.035 107.997C520.094 108.069 520.183 108.142 520.267 108.162C520.704 108.276 521.143 108.374 521.589 108.471C521.847 108.529 522.051 108.652 522.237 108.838C522.365 108.977 522.458 109.225 522.737 109.078C522.752 109.067 522.796 109.099 522.828 109.116C522.909 109.163 525.375 111.231 528.455 110.218C530.355 109.585 532.71 107.432 532.694 107.368C532.804 107.368 535.562 104.209 535.782 104.082C535.823 104.059 535.933 104.082 535.954 104.116C536.088 104.338 536.282 104.468 536.513 104.564C536.576 104.596 536.643 104.658 536.678 104.722C536.707 104.786 549.532 108.809 550.535 109.341C550.564 109.358 550.508 109.325 550.535 109.341L549.547 101.737Z" fill="#04383c" fill-rule="nonzero" opacity="1" stroke="none"/>
<path d="M440.469 82.1209C440.103 81.3102 439.787 80.4994 440.141 79.3809C440.557 78.0185 441.095 77.9987 442.643 77.8295C442.207 79.8228 442.549 81.8405 440.469 82.1209M466.791 63.7804C465.263 61.3802 462.271 61.8694 461.645 64.2254C460.667 67.9072 462.433 67.2428 459.042 70.1093C457.669 71.2736 456.022 73.4025 454.784 74.1523C450.947 76.4915 449.245 78.1282 449.245 78.1282C448.71 75.2129 449.608 68.9755 450.609 67.4637C454.425 61.7185 452.37 66.3315 455.164 59.0379C456.839 54.6612 458.154 49.9614 458.16 45.0224C458.16 41.7398 458.815 39.1949 458.724 36.6575C458.586 32.6572 454.734 25.2479 451.552 24.5728C450.856 28.4024 451.546 33.9099 451.56 37.9727C451.581 43.2866 450.533 45.7142 450.209 50.3485C449.909 54.3275 446.215 66.4488 444.973 68.5396C443.938 70.2647 444.191 69.8944 443.073 70.2495C440.624 66.1547 444.198 65.2007 445.662 62.9986C446.392 59.6521 445.283 57.325 442.418 56.8557C439.041 56.3147 437.593 58.0078 436.394 59.9843C434.825 62.5445 433.53 63.2592 431.875 64.8441C429.761 66.874 429.828 69.1218 426.802 69.3153C425.724 67.5552 426.671 68.2425 424.902 64.9508C423.874 63.0093 424.44 62.5125 425.219 60.2175C426.189 57.2732 425.388 58.1586 424.902 55.664C424.528 53.6966 424.961 51.5478 424.473 49.6963L423.571 47.4408C421.046 41.685 413.699 43.0154 411.058 45.5314L409.975 46.5951C409.068 47.4332 409.624 46.7764 408.856 47.5917C404.345 52.3692 403.944 55.5344 400.878 58.3156C398.486 60.4887 397.983 62.2077 391.595 67.8112C389.728 69.4525 385.859 72.4104 385.27 74.4906C387.154 74.169 386.372 73.8993 388.09 73.6113C391.569 73.0444 389.531 73.9237 390.679 74.4342L397.209 74.6415C400.791 74.0578 404.74 71.2111 407.189 71.0953C407.639 71.077 407.826 71.0115 407.87 70.9459C407.344 70.5817 408.041 70.7752 407.87 70.9459C408.019 71.0404 408.216 71.1578 408.562 71.3376C402.527 75.7204 407.605 74.6491 401.622 78.3705C398.784 80.1398 399.236 79.3519 396.569 79.3352C395.19 79.323 389.3 83.2075 387.597 84.1614C385.66 85.2282 379.641 88.177 377.737 88.4787C374.359 89.0212 373.957 88.1267 371.645 87.5278C365.865 92.6909 369.94 96.9381 372.233 97.3114C378.155 98.2608 390.474 90.7585 395.331 88.2684C397.075 87.3708 398.792 86.0648 400.237 85.3227C404.071 83.3538 404.106 83.6311 405.27 84.3687C404.617 86.2035 400.601 92.4592 399.079 93.5107C397.012 94.9478 396.456 94.9082 395.424 97.7198C394.612 99.9432 393.704 101.586 394.217 104.172C395.878 105.771 397.565 107.1 399.842 107.153C403.493 107.234 402.882 104.824 405.534 103.855C406.826 106.115 406.886 109.163 408.251 110.858C409.877 112.843 414.079 112.884 415.543 111.066L422.544 87.3114C423.326 85.7875 422.745 88.1343 423.277 85.3699C424.345 79.8777 425.944 80.1566 430.557 74.4753C431.651 73.1267 434.162 70.2236 436.636 70.3226C436.866 75.4857 433.608 77.4729 432.474 82.7198C431.229 88.5747 426.95 85.9886 428.231 94.7985C432.184 96.0908 432.066 97.1133 435.078 94.0807C436.535 92.6101 439.358 90.2587 441.957 90.6747C443.341 94.3824 440.081 106.242 439.103 111.069C437.422 119.303 440.44 112.379 435.635 124.384C432.92 131.182 432.453 133.201 436.45 135.333C438.957 136.658 444.935 137.438 445.283 129.23L445.283 112.513C445.401 109.916 450.606 101.237 449.111 90.1825C448.295 84.1035 452.538 83.0718 459.3 78.7103C464.854 75.1413 470.933 70.2327 466.791 63.7804" fill="#04383c" fill-rule="evenodd" opacity="1" stroke="none"/>
<path d="M333.154 86.2857L332.162 87.9513C331.227 89.6505 332.144 88.6127 330.638 90.0269C330.553 90.1122 330.423 90.1961 330.353 90.2692C328.055 92.3997 329.313 92.8843 325.103 94.9964C323.788 95.6609 323.415 95.7233 320.747 95.2951L319.84 95.0376C320.649 91.5127 321.114 94.876 327.525 90.0482C329.372 88.6691 328.903 88.3765 330.448 86.72C333.644 83.3003 331.064 84.3609 333.535 83.4542C334.415 84.8532 333.9 85.0726 333.154 86.2857M354.02 70.4139C348.59 66.4319 343.003 68.6127 336.789 68.7955C333.848 68.8839 334.491 67.9223 332.246 68.4222C331.219 68.6416 329.91 69.78 328.781 70.3591C323.985 72.8187 311.126 74.655 305.19 76.0098C301.007 76.9592 291.591 78.9556 288.582 80.6532C288.582 80.6532 286.798 82.1025 286.516 82.7928C285.989 84.0882 288.107 86.3329 288.107 86.3329C290.846 86.8465 300.12 85.7553 302.942 84.3091L316.708 80.292C319.107 79.777 318.896 79.143 320.521 78.3079C321.655 77.7257 323.759 77.1802 324.997 76.8068C324.779 79.3152 323.598 79.5682 322.127 81.0388C320.553 82.6099 320.05 83.5182 318.657 84.8806L311.999 89.2329C311.275 89.5347 311.099 89.4859 310.43 89.7252C308.647 90.3408 310.05 89.7709 308.938 90.3622C306.172 91.8145 303.02 94.0165 299.48 95.5801C292.907 98.5076 292.773 96.211 293.935 103.762C308.97 108.402 305.969 101.72 311.528 102.343C313.217 104.526 310.746 104.265 315.91 107.976C322.095 112.42 324.174 108.405 329.805 104.419C332.402 102.586 332.971 101.359 334.878 99.0211C339.713 93.0824 345.843 89.9644 344.584 83.4679C344.108 81.0388 344.41 81.4746 342.598 80.1991C341.064 79.1019 337.525 76.7809 337.222 75.129C345.836 72.5672 354.928 79.745 354.02 70.4139" fill="#04383c" fill-rule="evenodd" opacity="1" stroke="none"/>
<path d="M315.149 58.4464C316.883 61.5445 317.319 62.2714 321.359 63.2544C327.187 64.693 335.076 69.0682 338.482 66.4683C341.262 64.344 341.269 61.194 339.974 58.2147C338.799 55.5006 336.695 54.5543 334.617 52.5564C332.281 50.3284 329.843 50.493 326.567 49.5603C320.585 47.8612 317.243 48.4692 314.972 53.4982L315.149 58.4464Z" fill="#04383c" fill-rule="evenodd" opacity="1" stroke="none"/>
</g>
</g>
</g>
</svg>
